<?xml version="1.0" encoding="UTF-8"?>
<svg id="Layer_2" data-name="Layer 2" xmlns="http://www.w3.org/2000/svg" viewBox="0 0 1113.33 234.16">
  <defs>
    <style>
      .cls-1 {
        fill: #fff;
      }

      .cls-1, .cls-2 {
        stroke-width: 0px;
      }

      .cls-2 {
        fill: #c1f701;
      }
    </style>
  </defs>
  <g id="Layer_1-2" data-name="Layer 1">
    <g id="logo_design" data-name="logo design">
      <path class="cls-2" d="M228.05,140.4h9.43c16.31,0,29.48-12.79,30.01-29.1.21-8.05-2.77-15.67-8.37-21.48-5.76-5.92-13.81-9.33-22.07-9.33h-9.49l2.03-1.23c7.78-4.74,12.95-12.58,14.18-21.64,1.23-9.01-1.65-17.96-7.89-24.57-5.65-6.02-13.27-9.27-21.59-9.27h-27.66c-.91-4.26-2.72-8.32-5.44-11.94C175.65,4.58,167.28.32,158.17.05c-.27-.05-.85-.05-.85-.05h-46.96c-9.12,0-17.64,4.21-23.35,11.46-2.82,3.62-4.74,7.73-5.76,11.99h-27.72c-3.84,0-7.57.75-11.03,2.13-3.46,1.39-6.72,3.41-9.49,6.02-6.77,6.4-10.13,15.4-9.11,24.79,1.01,9.49,6.45,18.12,14.61,23.08l1.12.69c-.05,0-.11.05-.16.05s-.11-.05-.16-.05-.11.05-.16.05-.11-.05-.11-.05c-.05,0-.11.05-.16.05s-.11-.05-.16-.05-.11.05-.16.05-.05-.05-.11-.05-.11.05-.16.05-.11-.05-.16-.05-.11.05-.16.05-.05-.05-.11-.05-.11.05-.16.05-.11-.05-.16-.05-.11.05-.16.05-.05-.05-.11-.05-.11.05-.16.05-.11-.05-.16-.05-.11.05-.16.05c0,0-.05-.05-.11-.05s-.11.05-.16.05-.11-.05-.16-.05-.11.05-.16.05c0,0-.05-.05-.11-.05s-.11.05-.16.05-.11-.05-.11-.05c-.11,0-.16.05-.21.05,0,0-.05-.05-.11-.05s-.11.05-.16.05-.11-.05-.11-.05c-.05,0-.11.05-.16.05s-.11-.05-.16-.05-.11.05-.16.05-.11-.05-.11-.05c-.05,0-.11.05-.16.05s-.11-.05-.16-.05-.11.05-.16.05-.11-.05-.11-.05c-.05,0-.11.05-.16.05s-.11-.05-.16-.05-.11.05-.16.05-.05-.05-.11-.05-.11.05-.16.05-.11-.05-.16-.05-.11.05-.16.05-.05-.05-.11-.05-.11.05-.16.05-.11-.05-.16-.05-.11.05-.16.05-.05-.05-.11-.05-.11.05-.16.05-.11-.05-.16-.05-.11.05-.16.05c0,0-.05-.05-.11-.05s-.11.05-.16.05-.11-.05-.16-.05-.11.05-.16.05c0,0-.05-.05-.11-.05s-.11.05-.16.05-.11-.05-.11-.05c-.11,0-.16.05-.21.05,0,0-.05-.05-.11-.05s-.11.05-.16.05-.11-.05-.11-.05c-.05,0-.11.05-.16.05s-.11-.05-.16-.05C13.66,80.17.5,92.96.02,109.33c-.27,8.05,2.72,15.62,8.37,21.48,5.76,5.92,13.81,9.33,22.07,9.33h9.43l-2.03,1.23c-7.78,4.69-12.95,12.58-14.13,21.59-1.23,9.01,1.6,18.02,7.89,24.63,5.6,5.97,13.27,9.27,21.53,9.27h27.66c.91,4.26,2.77,8.32,5.49,11.89,5.49,7.25,13.86,11.57,22.97,11.83h47.81c9.11,0,17.64-4.16,23.35-11.46,2.82-3.57,4.74-7.68,5.76-11.99h27.72c7.68,0,14.98-2.88,20.58-8.16,6.77-6.34,10.07-15.4,9.06-24.79-.96-9.49-6.45-18.12-14.61-23.08l-1.17-.69h.27ZM34.45,125.9c-10.5,2.61-21.06-5.33-20.74-16.2.27-10.29,10.02-17.8,20.15-15.3l38.7,9.43c6.72,1.65,6.72,11.14,0,12.74l-38.11,9.33ZM88.07,141.42l-20.36,33.53c-5.6,9.22-18.71,11.09-26.12,3.2-7.09-7.46-5.49-19.67,3.41-25.11l34.06-20.68c5.86-3.57,12.58,3.15,9.01,9.06ZM79.17,88.11l-33.53-20.36c-9.27-5.6-11.14-18.71-3.25-26.12,7.52-7.09,19.72-5.49,25.11,3.41l20.68,34.06c3.57,5.86-3.15,12.58-9.01,9.01ZM109.66,206.87c-10.29-.32-17.8-10.07-15.35-20.2l9.49-38.7c1.65-6.66,11.14-6.66,12.74,0l9.33,38.11c2.56,10.5-5.33,21.11-16.2,20.79ZM126.19,33.9l-9.49,38.7c-1.6,6.72-11.14,6.72-12.74,0l-9.33-38.06c-2.56-10.55,5.38-21.11,16.2-20.79,10.29.27,17.8,10.07,15.35,20.15ZM132.42,79.21l20.36-33.53c5.65-9.28,18.71-11.14,26.17-3.25,7.04,7.52,5.44,19.72-3.41,25.11l-34.11,20.68c-5.86,3.57-12.58-3.15-9.01-9.01ZM178.1,178.99c-7.52,7.09-19.67,5.49-25.11-3.41l-20.68-34.06c-3.57-5.92,3.15-12.63,9.06-9.06l33.53,20.36c9.22,5.65,11.09,18.71,3.2,26.17ZM186.63,126.22l-38.7-9.49c-6.66-1.6-6.66-11.14,0-12.74l38.11-9.33c10.5-2.56,21.11,5.38,20.79,16.2-.32,10.34-10.07,17.8-20.2,15.35Z"/>
      <g>
        <path class="cls-1" d="M332.03,186.42V34.5h34.94l46.44,94.84,46.01-94.84h34.94v151.92h-29.3v-102l-40.15,80.73h-23.22l-40.37-80.73v102h-29.3Z"/>
        <path class="cls-1" d="M539.08,62.06c-5.21,0-9.52-1.55-12.92-4.67-3.4-3.11-5.1-7.05-5.1-11.83s1.7-8.71,5.1-11.82c3.4-3.11,7.71-4.67,12.92-4.67s9.73,1.55,13.13,4.67c3.4,3.11,5.1,7.05,5.1,11.82s-1.7,8.72-5.1,11.83c-3.4,3.11-7.78,4.67-13.13,4.67ZM524.32,186.42v-109.38h29.3v109.38h-29.3Z"/>
        <path class="cls-1" d="M631.74,189.02c-9.98,0-18.92-2.46-26.8-7.38-7.89-4.92-14.08-11.72-18.56-20.4-4.49-8.68-6.73-18.45-6.73-29.3s2.28-21.01,6.84-29.62c4.56-8.61,10.85-15.41,18.88-20.4,8.03-4.99,17.03-7.48,27.02-7.48,7.82,0,14.69,1.45,20.62,4.34,5.93,2.89,10.7,7.02,14.32,12.37V30.16h29.3v156.26h-26.04l-3.25-14.97c-2.17,3.04-4.88,5.93-8.14,8.68-3.26,2.75-7.13,4.92-11.61,6.51-4.49,1.59-9.77,2.39-15.84,2.39ZM638.69,163.41c5.78,0,10.88-1.34,15.3-4.01,4.41-2.68,7.85-6.4,10.31-11.18,2.46-4.77,3.69-10.27,3.69-16.49s-1.23-11.72-3.69-16.5c-2.46-4.77-5.9-8.5-10.31-11.18-4.42-2.68-9.52-4.01-15.3-4.01s-10.49,1.34-14.98,4.01c-4.49,2.68-8,6.4-10.53,11.18-2.53,4.77-3.8,10.2-3.8,16.28s1.27,11.94,3.8,16.71c2.53,4.78,6.01,8.5,10.42,11.18,4.41,2.68,9.44,4.01,15.08,4.01Z"/>
        <path class="cls-1" d="M725.28,186.42V30.16h29.3v156.26h-29.3Z"/>
        <path class="cls-1" d="M797.12,234.16l26.48-59.9h-6.51l-43.84-97.23h31.9l31.25,70.54,28.21-70.54h31.04l-67.5,157.13h-31.03Z"/>
        <path class="cls-1" d="M911.06,187.51c-5.5,0-9.91-1.63-13.24-4.88-3.33-3.25-4.99-7.27-4.99-12.05s1.66-8.79,4.99-12.05c3.32-3.25,7.74-4.88,13.24-4.88,5.21,0,9.48,1.63,12.8,4.88,3.32,3.25,4.99,7.27,4.99,12.05s-1.67,8.79-4.99,12.05c-3.33,3.25-7.59,4.88-12.8,4.88Z"/>
        <path class="cls-1" d="M989.41,189.02c-9.11,0-16.64-1.49-22.57-4.45-5.93-2.96-10.31-6.95-13.13-11.94-2.82-4.99-4.23-10.53-4.23-16.6,0-6.65,1.7-12.51,5.1-17.58,3.4-5.06,8.54-9.04,15.41-11.94,6.87-2.89,15.52-4.34,25.94-4.34h27.13c0-5.35-.73-9.8-2.17-13.35-1.45-3.54-3.69-6.19-6.73-7.92-3.04-1.74-7.09-2.61-12.15-2.61-5.5,0-10.17,1.2-14,3.58-3.84,2.39-6.19,6.04-7.06,10.96h-28.43c.72-7.81,3.29-14.57,7.71-20.29,4.41-5.71,10.27-10.16,17.58-13.35,7.31-3.18,15.45-4.77,24.42-4.77,10.27,0,19.17,1.74,26.7,5.21,7.52,3.47,13.31,8.46,17.36,14.98,4.05,6.51,6.08,14.54,6.08,24.09v67.71h-24.74l-3.25-16.71c-1.59,2.9-3.47,5.5-5.64,7.82-2.17,2.31-4.71,4.34-7.6,6.08-2.9,1.74-6.15,3.07-9.77,4.01s-7.59,1.41-11.94,1.41ZM996.35,166.45c3.76,0,7.13-.68,10.09-2.06,2.96-1.37,5.53-3.25,7.7-5.64,2.17-2.39,3.87-5.14,5.1-8.25,1.23-3.11,2.06-6.47,2.49-10.09v-.22h-22.36c-4.49,0-8.14.54-10.96,1.62-2.82,1.09-4.88,2.64-6.19,4.67-1.3,2.03-1.95,4.34-1.95,6.95,0,2.9.65,5.28,1.95,7.16,1.3,1.88,3.18,3.33,5.64,4.34,2.46,1.02,5.28,1.52,8.46,1.52Z"/>
        <path class="cls-1" d="M1095.1,62.06c-5.21,0-9.52-1.55-12.91-4.67-3.4-3.11-5.1-7.05-5.1-11.83s1.7-8.71,5.1-11.82c3.4-3.11,7.7-4.67,12.91-4.67s9.73,1.55,13.13,4.67c3.4,3.11,5.1,7.05,5.1,11.82s-1.7,8.72-5.1,11.83c-3.4,3.11-7.78,4.67-13.13,4.67ZM1080.34,186.42v-109.38h29.3v109.38h-29.3Z"/>
      </g>
    </g>
  </g>
</svg>