<?xml version="1.0" encoding="UTF-8"?>
<svg id="Layer_2" data-name="Layer 2" xmlns="http://www.w3.org/2000/svg" viewBox="0 0 1440 302.84">
  <defs>
    <style>
      .cls-1 {
        fill: #060707;
      }

      .cls-1, .cls-2 {
        stroke-width: 0px;
      }

      .cls-2 {
        fill: #fff;
      }
    </style>
  </defs>
  <g id="Layer_1-2" data-name="Layer 1">
    <g id="logo_design" data-name="logo design">
      <g id="logomark">
        <path class="cls-1" d="M294.98,181.56c.06,0,.11.01.17.01.07,0,.14,0,.21-.01.06,0,.11.01.17.01.07,0,.14,0,.21-.01.06,0,.11.01.17.01.07,0,.14,0,.21-.01.06,0,.11.01.17.01.07,0,.14,0,.21-.01.06,0,.11.01.17.01.07,0,.14,0,.21-.01.06,0,.11.01.17.01.07,0,.14,0,.21-.01.06,0,.11.01.17.01.07,0,.14,0,.21-.01.06,0,.11.01.17.01.07,0,.14,0,.21-.01.06,0,.11.01.17.01.07,0,.14,0,.21-.01.06,0,.11.01.17.01.07,0,.14,0,.21-.01.06,0,.11.01.17.01.07,0,.14,0,.21-.01.06,0,.11.01.17.01.07,0,.14,0,.21-.01.06,0,.11.01.17.01.07,0,.14,0,.21-.01.06,0,.11.01.17.01.07,0,.14,0,.21-.01.06,0,.11.01.17.01.07,0,.14,0,.21-.01.06,0,.11.01.17.01.07,0,.14,0,.21-.01.06,0,.11.01.17.01.07,0,.14,0,.21-.01.06,0,.11.01.17.01.07,0,.14,0,.21-.01.06,0,.11.01.17.01.07,0,.14,0,.21-.01.06,0,.11.01.17.01.07,0,.14,0,.21-.01.06,0,.11.01.17.01.07,0,.14,0,.21-.01.06,0,.11.01.17.01.07,0,.14,0,.21-.01.06,0,.11.01.17.01.07,0,.14,0,.21-.01.06,0,.11.01.17.01.07,0,.14,0,.21-.01.06,0,.11.01.17.01.07,0,.14,0,.21-.01.06,0,.11.01.17.01.07,0,.14,0,.21-.01.06,0,.11.01.17.01.07,0,.14,0,.21-.01.06,0,.11.01.17.01.07,0,.14,0,.21-.01.06,0,.11.01.17.01.07,0,.14,0,.21-.01.06,0,.11.01.17.01.07,0,.14,0,.21-.01.06,0,.11.01.17.01.07,0,.14,0,.21-.01.06,0,.11.01.17.01.07,0,.14,0,.21-.01.06,0,.11.01.17.01,21.1,0,38.13-16.54,38.76-37.67.3-10.39-3.52-20.24-10.82-27.77-7.45-7.68-17.86-12.06-28.55-12.06-.06,0-.12.01-.17.01-.07,0-.14-.01-.2-.01-.06,0-.12.01-.17.01-.07,0-.14-.01-.2-.01-.06,0-.12.01-.17.01-.07,0-.14-.01-.2-.01-.06,0-.12.01-.17.01-.07,0-.14-.01-.2-.01-.06,0-.12.01-.17.01-.07,0-.14-.01-.2-.01-.06,0-.12.01-.17.01-.07,0-.14-.01-.2-.01-.06,0-.12.01-.17.01-.07,0-.14-.01-.2-.01-.06,0-.12.01-.17.01-.07,0-.14-.01-.2-.01-.06,0-.12.01-.17.01-.07,0-.14-.01-.2-.01-.06,0-.12.01-.17.01-.07,0-.14-.01-.2-.01-.06,0-.12.01-.17.01-.07,0-.14-.01-.2-.01-.06,0-.12.01-.17.01-.07,0-.14-.01-.2-.01-.06,0-.12.01-.17.01-.07,0-.14-.01-.2-.01-.06,0-.12.01-.17.01-.07,0-.14-.01-.2-.01-.06,0-.12.01-.17.01-.07,0-.14-.01-.2-.01-.06,0-.12.01-.17.01-.07,0-.14-.01-.2-.01-.06,0-.12.01-.17.01-.07,0-.14-.01-.2-.01-.06,0-.12.01-.17.01-.07,0-.14-.01-.2-.01-.06,0-.12.01-.17.01-.07,0-.14-.01-.2-.01-.06,0-.12.01-.17.01-.07,0-.14-.01-.2-.01-.06,0-.12.01-.17.01-.07,0-.14-.01-.2-.01-.06,0-.12.01-.17.01-.07,0-.14-.01-.2-.01-.06,0-.12.01-.17.01-.07,0-.14-.01-.2-.01-.06,0-.12.01-.17.01-.07,0-.14-.01-.2-.01-.06,0-.12.01-.17.01-.07,0-.14-.01-.2-.01-.06,0-.12.01-.17.01-.07,0-.14-.01-.2-.01-.06,0-.12.01-.17.01-.07,0-.14-.01-.2-.01-.06,0-.12.01-.17.01-.07,0-.14-.01-.2-.01-.06,0-.12.01-.17.01-.07,0-.14-.01-.2-.01-.06,0-.12.01-.17.01-.07,0-.14-.01-.2-.01-.06,0-.12.01-.17.01-.07,0-.14-.01-.2-.01-.06,0-.12.01-.17.01-.07,0-.14-.01-.2-.01-.05,0-.11,0-.16,0l2.61-1.58c10.06-6.13,16.75-16.32,18.32-27.99,1.6-11.65-2.13-23.26-10.18-31.82-7.27-7.73-17.18-11.98-27.89-11.98-.08,0-.15,0-.23,0-.05,0-.1,0-.15,0-.08,0-.15,0-.23,0-.05,0-.1,0-.15,0-.08,0-.15,0-.23,0-.05,0-.1,0-.15,0-.08,0-.15,0-.23,0-.05,0-.1,0-.15,0-.08,0-.15,0-.23,0-.05,0-.1,0-.15,0-.08,0-.15,0-.23,0-.05,0-.1,0-.15,0-.08,0-.15,0-.23,0-.05,0-.1,0-.15,0-.08,0-.15,0-.23,0-.05,0-.1,0-.15,0-.08,0-.15,0-.23,0-.05,0-.1,0-.15,0-.08,0-.15,0-.23,0-.05,0-.1,0-.15,0-.08,0-.15,0-.23,0-.05,0-.1,0-.15,0-.08,0-.15,0-.23,0-.05,0-.1,0-.15,0-.08,0-.15,0-.23,0-.05,0-.1,0-.15,0-.08,0-.15,0-.23,0-.05,0-.1,0-.15,0-.08,0-.15,0-.23,0-.05,0-.1,0-.15,0-.08,0-.15,0-.23,0-.05,0-.1,0-.15,0-.08,0-.15,0-.23,0-.05,0-.1,0-.15,0-.08,0-.15,0-.23,0-.05,0-.1,0-.15,0-.08,0-.15,0-.23,0-.05,0-.1,0-.15,0-.08,0-.15,0-.23,0-.05,0-.1,0-.15,0-.08,0-.15,0-.23,0-.05,0-.1,0-.15,0-.08,0-.15,0-.23,0-.05,0-.1,0-.15,0-.08,0-.15,0-.23,0-.05,0-.1,0-.15,0-.08,0-.15,0-.23,0-.05,0-.1,0-.15,0-.08,0-.15,0-.23,0-.05,0-.1,0-.15,0-.08,0-.15,0-.23,0-.05,0-.1,0-.15,0-.08,0-.15,0-.23,0-.05,0-.1,0-.15,0-.08,0-.15,0-.23,0-.05,0-.1,0-.15,0-.08,0-.15,0-.23,0-.05,0-.1,0-.15,0-.08,0-.15,0-.23,0-.05,0-.1,0-.15,0-.08,0-.15,0-.23,0-.05,0-.1,0-.15,0-.08,0-.15,0-.23,0-.05,0-.1,0-.15,0-.08,0-.15,0-.23,0-.05,0-.1,0-.15,0-.08,0-.15,0-.23,0-.05,0-.1,0-.15,0-.08,0-.15,0-.23,0-.05,0-.1,0-.15,0-.08,0-.15,0-.23,0-.05,0-.1,0-.15,0-.08,0-.15,0-.23,0-.05,0-.1,0-.15,0-.08,0-.15,0-.23,0-.05,0-.1,0-.15,0-.08,0-.15,0-.23,0-.05,0-.1,0-.15,0-.08,0-.15,0-.23,0-.05,0-.1,0-.15,0-.08,0-.15,0-.23,0-.05,0-.1,0-.15,0-.08,0-.15,0-.23,0-.05,0-.1,0-.15,0-.08,0-.15,0-.23,0-.05,0-.1,0-.15,0-.08,0-.15,0-.23,0-.05,0-.1,0-.15,0-.08,0-.15,0-.23,0-.05,0-.1,0-.15,0-.08,0-.15,0-.23,0-.05,0-.1,0-.15,0-.08,0-.15,0-.23,0-.05,0-.1,0-.15,0-.08,0-.15,0-.23,0-.05,0-.1,0-.15,0-.08,0-.15,0-.23,0-.05,0-.1,0-.15,0-.08,0-.15,0-.23,0-.05,0-.1,0-.15,0-.08,0-.15,0-.23,0-.05,0-.1,0-.15,0-.08,0-.15,0-.23,0-.05,0-.1,0-.15,0-.08,0-.15,0-.23,0-.05,0-.1,0-.15,0-.08,0-.15,0-.23,0-.05,0-.1,0-.15,0-.08,0-.15,0-.23,0-.05,0-.1,0-.15,0-.08,0-.15,0-.23,0-.05,0-.1,0-.15,0-.08,0-.15,0-.23,0-.05,0-.1,0-.15,0-.08,0-.15,0-.23,0-.05,0-.1,0-.15,0-.08,0-.15,0-.23,0-.05,0-.1,0-.15,0-.08,0-.15,0-.23,0-.05,0-.1,0-.15,0-.08,0-.15,0-.23,0-.05,0-.1,0-.15,0-.08,0-.15,0-.23,0-.05,0-.1,0-.15,0-.08,0-.15,0-.23,0-.05,0-.1,0-.15,0-.08,0-.15,0-.23,0-.05,0-.1,0-.15,0-.08,0-.15,0-.23,0-.05,0-.1,0-.15,0-.08,0-.15,0-.23,0-.05,0-.1,0-.15,0-.08,0-.15,0-.23,0-.05,0-.1,0-.15,0-.08,0-.15,0-.23,0-.05,0-.1,0-.15,0-.08,0-.15,0-.23,0-.05,0-.1,0-.15,0-.08,0-.15,0-.23,0-.05,0-.1,0-.15,0-.08,0-.15,0-.23,0-.05,0-.1,0-.15,0-.08,0-.15,0-.23,0-.05,0-.1,0-.15,0-.08,0-.15,0-.23,0-.05,0-.1,0-.15,0-.08,0-.15,0-.23,0-.05,0-.1,0-.15,0-.08,0-.15,0-.23,0-.05,0-.1,0-.15,0-.08,0-.15,0-.23,0-.05,0-.1,0-.15,0-.08,0-.15,0-.23,0-.05,0-.1,0-.15,0-.08,0-.15,0-.23,0-.05,0-.1,0-.15,0-.08,0-.15,0-.23,0-.05,0-.1,0-.15,0-.08,0-.15,0-.23,0-.05,0-.1,0-.15,0-.08,0-.15,0-.23,0-.05,0-.1,0-.15,0-.08,0-.15,0-.23,0-.05,0-.1,0-.15,0-.08,0-.15,0-.23,0-.05,0-.1,0-.15,0-.08,0-.15,0-.23,0-.05,0-.1,0-.15,0-.08,0-.15,0-.23,0-.05,0-.1,0-.15,0-.08,0-.15,0-.23,0-.05,0-.1,0-.15,0-.08,0-.15,0-.23,0-.05,0-.1,0-.15,0-.08,0-.15,0-.23,0-.05,0-.1,0-.15,0-.08,0-.15,0-.23,0-.05,0-.1,0-.15,0-.08,0-.15,0-.23,0-.05,0-.1,0-.15,0-.08,0-.15,0-.23,0-.05,0-.1,0-.15,0-.08,0-.15,0-.23,0-.05,0-.1,0-.15,0-.08,0-.15,0-.23,0-.05,0-.1,0-.15,0-.08,0-.15,0-.23,0-.05,0-.1,0-.15,0-.08,0-.15,0-.23,0-.04,0-.07,0-.11,0-1.18-5.51-3.56-10.77-7.08-15.41C227.21,5.93,216.39.35,204.64.03c-.38-.03-1.17-.03-1.17-.03-.01,0-.03,0-.04,0-.19,0-.34,0-.34,0-.01,0-.03,0-.04,0-.19,0-.34,0-.34,0-.01,0-.03,0-.04,0-.19,0-.34,0-.34,0-.01,0-.03,0-.04,0-.19,0-.34,0-.34,0-.01,0-.03,0-.04,0-.19,0-.34,0-.34,0-.01,0-.03,0-.04,0-.19,0-.34,0-.34,0-.01,0-.03,0-.04,0-.19,0-.34,0-.34,0-.01,0-.03,0-.04,0-.19,0-.34,0-.34,0-.01,0-.03,0-.04,0-.19,0-.34,0-.34,0-.01,0-.03,0-.04,0-.19,0-.34,0-.34,0-.01,0-.03,0-.04,0-.19,0-.34,0-.34,0-.01,0-.03,0-.04,0-.19,0-.34,0-.34,0-.01,0-.03,0-.04,0-.19,0-.34,0-.34,0-.01,0-.03,0-.04,0-.19,0-.34,0-.34,0-.01,0-.03,0-.04,0-.19,0-.34,0-.34,0-.01,0-.03,0-.04,0-.19,0-.34,0-.34,0-.01,0-.03,0-.04,0-.19,0-.34,0-.34,0-.01,0-.03,0-.04,0-.19,0-.34,0-.34,0-.01,0-.03,0-.04,0-.19,0-.34,0-.34,0-.01,0-.03,0-.04,0-.19,0-.34,0-.34,0-.01,0-.03,0-.04,0-.19,0-.34,0-.34,0-.01,0-.03,0-.04,0-.19,0-.34,0-.34,0-.01,0-.03,0-.04,0-.19,0-.34,0-.34,0-.01,0-.03,0-.04,0-.19,0-.34,0-.34,0-.01,0-.03,0-.04,0-.19,0-.34,0-.34,0-.01,0-.03,0-.04,0-.19,0-.34,0-.34,0-.01,0-.03,0-.04,0-.19,0-.34,0-.34,0-.01,0-.03,0-.04,0-.19,0-.34,0-.34,0-.01,0-.03,0-.04,0-.19,0-.34,0-.34,0-.01,0-.03,0-.04,0-.19,0-.34,0-.34,0-.01,0-.03,0-.04,0-.19,0-.34,0-.34,0-.01,0-.03,0-.04,0-.19,0-.34,0-.34,0-.01,0-.03,0-.04,0-.19,0-.34,0-.34,0-.01,0-.03,0-.04,0-.19,0-.34,0-.34,0-.01,0-.03,0-.04,0-.19,0-.34,0-.34,0-.01,0-.03,0-.04,0-.19,0-.34,0-.34,0-.01,0-.03,0-.04,0-.19,0-.34,0-.34,0-.01,0-.03,0-.04,0-.19,0-.34,0-.34,0-.01,0-.03,0-.04,0-.19,0-.34,0-.34,0-.01,0-.03,0-.04,0-.19,0-.34,0-.34,0-.01,0-.03,0-.04,0-.19,0-.34,0-.34,0-.01,0-.03,0-.04,0-.19,0-.34,0-.34,0-.01,0-.03,0-.04,0-.19,0-.34,0-.34,0-.01,0-.03,0-.04,0-.19,0-.34,0-.34,0-.01,0-.03,0-.04,0-.19,0-.34,0-.34,0-.01,0-.03,0-.04,0-.19,0-.34,0-.34,0-.01,0-.03,0-.04,0-.19,0-.34,0-.34,0-.01,0-.03,0-.04,0-.19,0-.34,0-.34,0-.01,0-.03,0-.04,0-.19,0-.34,0-.34,0-.01,0-.03,0-.04,0-.19,0-.34,0-.34,0-.01,0-.03,0-.04,0-.19,0-.34,0-.34,0-.01,0-.03,0-.04,0-.19,0-.34,0-.34,0-.01,0-.03,0-.04,0-.19,0-.34,0-.34,0-.01,0-.03,0-.04,0-.19,0-.34,0-.34,0-.01,0-.03,0-.04,0-.19,0-.34,0-.34,0-.01,0-.03,0-.04,0-.19,0-.34,0-.34,0-.01,0-.03,0-.04,0-.19,0-.34,0-.34,0-.01,0-.03,0-.04,0-.19,0-.34,0-.34,0-.01,0-.03,0-.04,0-.19,0-.34,0-.34,0-.01,0-.03,0-.04,0-.19,0-.34,0-.34,0-.01,0-.03,0-.04,0-.19,0-.34,0-.34,0-.01,0-.03,0-.04,0-.19,0-.34,0-.34,0-.01,0-.03,0-.04,0-.19,0-.34,0-.34,0-.01,0-.03,0-.04,0-.19,0-.34,0-.34,0-.01,0-.03,0-.04,0-.19,0-.34,0-.34,0-.01,0-.03,0-.04,0-.19,0-.34,0-.34,0-.01,0-.03,0-.04,0-.19,0-.34,0-.34,0-.01,0-.03,0-.04,0-.19,0-.34,0-.34,0-.01,0-.03,0-.04,0-.19,0-.34,0-.34,0-.01,0-.03,0-.04,0-.19,0-.34,0-.34,0-.01,0-.03,0-.04,0-.19,0-.34,0-.34,0-.01,0-.03,0-.04,0-.19,0-.34,0-.34,0-.01,0-.03,0-.04,0-.19,0-.34,0-.34,0-.01,0-.03,0-.04,0-.19,0-.34,0-.34,0-.01,0-.03,0-.04,0-.19,0-.34,0-.34,0-.01,0-.03,0-.04,0-.19,0-.34,0-.34,0-.01,0-.03,0-.04,0-.19,0-.34,0-.34,0-.01,0-.03,0-.04,0-.19,0-.34,0-.34,0-.01,0-.03,0-.04,0-.19,0-.34,0-.34,0-.01,0-.03,0-.04,0-.19,0-.34,0-.34,0-.01,0-.03,0-.04,0-.19,0-.34,0-.34,0-.01,0-.03,0-.04,0-.19,0-.34,0-.34,0-.01,0-.03,0-.04,0-.19,0-.34,0-.34,0-.01,0-.03,0-.04,0-.19,0-.34,0-.34,0-.01,0-.03,0-.04,0-.19,0-.34,0-.34,0-.01,0-.03,0-.04,0-.19,0-.34,0-.34,0-.01,0-.03,0-.04,0-.19,0-.34,0-.34,0-.01,0-.03,0-.04,0-.19,0-.34,0-.34,0-.01,0-.03,0-.04,0-.19,0-.34,0-.34,0-.01,0-.03,0-.04,0-.19,0-.34,0-.34,0-.01,0-.03,0-.04,0-.19,0-.34,0-.34,0-.01,0-.03,0-.04,0-.19,0-.34,0-.34,0-.01,0-.03,0-.04,0-.19,0-.34,0-.34,0-.01,0-.03,0-.04,0-.19,0-.34,0-.34,0-.01,0-.03,0-.04,0-.19,0-.34,0-.34,0-.01,0-.03,0-.04,0-.19,0-.34,0-.34,0-.01,0-.03,0-.04,0-.19,0-.34,0-.34,0-.01,0-.03,0-.04,0-.19,0-.34,0-.34,0-.01,0-.03,0-.04,0-.19,0-.34,0-.34,0-.01,0-.03,0-.04,0-.19,0-.34,0-.34,0-.01,0-.03,0-.04,0-.19,0-.34,0-.34,0-.01,0-.03,0-.04,0-.19,0-.34,0-.34,0-.01,0-.03,0-.04,0-.19,0-.34,0-.34,0-.01,0-.03,0-.04,0-.19,0-.34,0-.34,0-.01,0-.03,0-.04,0-.19,0-.34,0-.34,0-.01,0-.03,0-.04,0-.19,0-.34,0-.34,0-.01,0-.03,0-.04,0-.19,0-.34,0-.34,0-.01,0-.03,0-.04,0-.19,0-.34,0-.34,0-.01,0-.03,0-.04,0-.19,0-.34,0-.34,0-.01,0-.03,0-.04,0-.19,0-.34,0-.34,0-.01,0-.03,0-.04,0-.19,0-.34,0-.34,0-.01,0-.03,0-.04,0-.19,0-.34,0-.34,0-.01,0-.03,0-.04,0-.19,0-.34,0-.34,0-.01,0-.03,0-.04,0-.19,0-.34,0-.34,0-.01,0-.03,0-.04,0-.19,0-.34,0-.34,0-.01,0-.03,0-.04,0-.19,0-.34,0-.34,0-.01,0-.03,0-.04,0-.19,0-.34,0-.34,0-.01,0-.03,0-.04,0-.19,0-.34,0-.34,0-.01,0-.03,0-.04,0-.19,0-.34,0-.34,0-.01,0-.03,0-.04,0-.19,0-.34,0-.34,0-.01,0-.03,0-.04,0-.19,0-.34,0-.34,0-.01,0-.03,0-.04,0-.19,0-.34,0-.34,0-.01,0-.03,0-.04,0-.19,0-.34,0-.34,0-.01,0-.03,0-.04,0-.19,0-.34,0-.34,0-.01,0-.03,0-.04,0-.19,0-.34,0-.34,0-.01,0-.03,0-.04,0-.19,0-.34,0-.34,0-.01,0-.03,0-.04,0-.19,0-.34,0-.34,0-.01,0-.03,0-.04,0-.19,0-.34,0-.34,0-.01,0-.03,0-.04,0-.19,0-.34,0-.34,0-.01,0-.03,0-.04,0-.19,0-.34,0-.34,0-.01,0-.03,0-.04,0-.19,0-.34,0-.34,0-.01,0-.03,0-.04,0-.19,0-.34,0-.34,0-.01,0-.03,0-.04,0-.19,0-.34,0-.34,0-.01,0-.03,0-.04,0-.19,0-.34,0-.34,0-.01,0-.03,0-.04,0-.19,0-.34,0-.34,0-.01,0-.03,0-.04,0-.19,0-.34,0-.34,0-.01,0-.03,0-.04,0-.19,0-.34,0-.34,0-.01,0-.03,0-.04,0-.19,0-.34,0-.34,0-.01,0-.03,0-.04,0-.19,0-.34,0-.34,0-.01,0-.03,0-.04,0-.19,0-.34,0-.34,0-.01,0-.03,0-.04,0-.19,0-.34,0-.34,0-.01,0-.03,0-.04,0-.19,0-.34,0-.34,0-.01,0-.03,0-.04,0-.19,0-.34,0-.34,0-.01,0-.03,0-.04,0-.19,0-.34,0-.34,0-.01,0-.03,0-.04,0-.19,0-.34,0-.34,0-.01,0-.03,0-.04,0-.19,0-.34,0-.34,0-.01,0-.03,0-.04,0-.19,0-.34,0-.34,0-.01,0-.03,0-.04,0-.19,0-.34,0-.34,0-.01,0-.03,0-.04,0-.19,0-.34,0-.34,0-.01,0-.03,0-.04,0-.19,0-.34,0-.34,0-.01,0-.03,0-.04,0-.19,0-.34,0-.34,0-.01,0-.03,0-.04,0-.19,0-.34,0-.34,0-.01,0-.03,0-.04,0-.19,0-.34,0-.34,0-.01,0-.03,0-.04,0-.19,0-.34,0-.34,0-.01,0-.03,0-.04,0-.19,0-.34,0-.34,0-.01,0-.03,0-.04,0-.19,0-.34,0-.34,0-.01,0-.03,0-.04,0-.19,0-.34,0-.34,0-.01,0-.03,0-.04,0-.19,0-.34,0-.34,0-.01,0-.03,0-.04,0-.19,0-.34,0-.34,0-.01,0-.03,0-.04,0-.19,0-.34,0-.34,0-.01,0-.03,0-.04,0-.19,0-.34,0-.34,0-11.78,0-22.78,5.4-30.17,14.79-3.66,4.67-6.14,9.97-7.45,15.53,0,0-.01,0-.02,0-.05,0-.1,0-.15,0-.08,0-.15,0-.23,0-.05,0-.1,0-.15,0-.08,0-.15,0-.23,0-.05,0-.1,0-.15,0-.08,0-.15,0-.23,0-.05,0-.1,0-.15,0-.08,0-.15,0-.23,0-.05,0-.1,0-.15,0-.08,0-.15,0-.23,0-.05,0-.1,0-.15,0-.08,0-.15,0-.23,0-.05,0-.1,0-.15,0-.08,0-.15,0-.23,0-.05,0-.1,0-.15,0-.08,0-.15,0-.23,0-.05,0-.1,0-.15,0-.08,0-.15,0-.23,0-.05,0-.1,0-.15,0-.08,0-.15,0-.23,0-.05,0-.1,0-.15,0-.08,0-.15,0-.23,0-.05,0-.1,0-.15,0-.08,0-.15,0-.23,0-.05,0-.1,0-.15,0-.08,0-.15,0-.23,0-.05,0-.1,0-.15,0-.08,0-.15,0-.23,0-.05,0-.1,0-.15,0-.08,0-.15,0-.23,0-.05,0-.1,0-.15,0-.08,0-.15,0-.23,0-.05,0-.1,0-.15,0-.08,0-.15,0-.23,0-.05,0-.1,0-.15,0-.08,0-.15,0-.23,0-.05,0-.1,0-.15,0-.08,0-.15,0-.23,0-.05,0-.1,0-.15,0-.08,0-.15,0-.23,0-.05,0-.1,0-.15,0-.08,0-.15,0-.23,0-.05,0-.1,0-.15,0-.08,0-.15,0-.23,0-.05,0-.1,0-.15,0-.08,0-.15,0-.23,0-.05,0-.1,0-.15,0-.08,0-.15,0-.23,0-.05,0-.1,0-.15,0-.08,0-.15,0-.23,0-.05,0-.1,0-.15,0-.08,0-.15,0-.23,0-.05,0-.1,0-.15,0-.08,0-.15,0-.23,0-.05,0-.1,0-.15,0-.08,0-.15,0-.23,0-.05,0-.1,0-.15,0-.08,0-.15,0-.23,0-.05,0-.1,0-.15,0-.08,0-.15,0-.23,0-.05,0-.1,0-.15,0-.08,0-.15,0-.23,0-.05,0-.1,0-.15,0-.08,0-.15,0-.23,0-.05,0-.1,0-.15,0-.08,0-.15,0-.23,0-.05,0-.1,0-.15,0-.08,0-.15,0-.23,0-.05,0-.1,0-.15,0-.08,0-.15,0-.23,0-.05,0-.1,0-.15,0-.08,0-.15,0-.23,0-.05,0-.1,0-.15,0-.08,0-.15,0-.23,0-.05,0-.1,0-.15,0-.08,0-.15,0-.23,0-.05,0-.1,0-.15,0-.08,0-.15,0-.23,0-.05,0-.1,0-.15,0-.08,0-.15,0-.23,0-.05,0-.1,0-.15,0-.08,0-.15,0-.23,0-.05,0-.1,0-.15,0-.08,0-.15,0-.23,0-.05,0-.1,0-.15,0-.08,0-.15,0-.23,0-.05,0-.1,0-.15,0-.08,0-.15,0-.23,0-.05,0-.1,0-.15,0-.08,0-.15,0-.23,0-.05,0-.1,0-.15,0-.08,0-.15,0-.23,0-.05,0-.1,0-.15,0-.08,0-.15,0-.23,0-.05,0-.1,0-.15,0-.08,0-.15,0-.23,0-.05,0-.1,0-.15,0-.08,0-.15,0-.23,0-.05,0-.1,0-.15,0-.08,0-.15,0-.23,0-.05,0-.1,0-.15,0-.08,0-.15,0-.23,0-.05,0-.1,0-.15,0-.08,0-.15,0-.23,0-.05,0-.1,0-.15,0-.08,0-.15,0-.23,0-.05,0-.1,0-.15,0-.08,0-.15,0-.23,0-.05,0-.1,0-.15,0-.08,0-.15,0-.23,0-.05,0-.1,0-.15,0-.08,0-.15,0-.23,0-.05,0-.1,0-.15,0-.08,0-.15,0-.23,0-.05,0-.1,0-.15,0-.08,0-.15,0-.23,0-.05,0-.1,0-.15,0-.08,0-.15,0-.23,0-.05,0-.1,0-.15,0-.08,0-.15,0-.23,0-.05,0-.1,0-.15,0-.08,0-.15,0-.23,0-.05,0-.1,0-.15,0-.08,0-.15,0-.23,0-.05,0-.1,0-.15,0-.08,0-.15,0-.23,0-.05,0-.1,0-.15,0-.08,0-.15,0-.23,0-.05,0-.1,0-.15,0-.08,0-.15,0-.23,0-.05,0-.1,0-.15,0-.08,0-.15,0-.23,0-.05,0-.1,0-.15,0-.08,0-.15,0-.23,0-.05,0-.1,0-.15,0-.08,0-.15,0-.23,0-.05,0-.1,0-.15,0-.08,0-.15,0-.23,0-.05,0-.1,0-.15,0-.08,0-.15,0-.23,0-.05,0-.1,0-.15,0-.08,0-.15,0-.23,0-.05,0-.1,0-.15,0-.08,0-.15,0-.23,0-.05,0-.1,0-.15,0-.08,0-.15,0-.23,0-.05,0-.1,0-.15,0-.08,0-.15,0-.23,0-.05,0-.1,0-.15,0-.08,0-.15,0-.23,0-.05,0-.1,0-.15,0-.08,0-.15,0-.23,0-.05,0-.1,0-.15,0-.08,0-.15,0-.23,0-.05,0-.1,0-.15,0-.08,0-.15,0-.23,0-.05,0-.1,0-.15,0-.08,0-.15,0-.23,0-.05,0-.1,0-.15,0-.08,0-.15,0-.23,0-.05,0-.1,0-.15,0-.08,0-.15,0-.23,0-.05,0-.1,0-.15,0-.08,0-.15,0-.23,0-.05,0-.1,0-.15,0-.08,0-.15,0-.23,0-.05,0-.1,0-.15,0-.08,0-.15,0-.23,0-.05,0-.1,0-.15,0-.08,0-.15,0-.23,0-.05,0-.1,0-.15,0-.08,0-.15,0-.23,0-.05,0-.1,0-.15,0-.08,0-.15,0-.23,0-.05,0-.1,0-.15,0-.08,0-.15,0-.23,0-.05,0-.1,0-.15,0-.08,0-.15,0-.23,0-.05,0-.1,0-.15,0-.08,0-.15,0-.23,0-.05,0-.1,0-.15,0-.08,0-.15,0-.23,0-.05,0-.1,0-.15,0-.08,0-.15,0-.23,0-.05,0-.1,0-.15,0-.08,0-.15,0-.23,0-.05,0-.1,0-.15,0-.08,0-.15,0-.23,0-.05,0-.1,0-.15,0-.08,0-.15,0-.23,0-4.97,0-9.8.94-14.31,2.74-4.48,1.77-8.66,4.43-12.26,7.83-8.77,8.26-13.05,19.91-11.78,32.02,1.29,12.29,8.39,23.46,18.92,29.87l1.51.92s-.08,0-.11,0c-.07,0-.14,0-.21.01-.06,0-.11-.01-.17-.01-.07,0-.14,0-.21.01-.06,0-.11-.01-.17-.01-.07,0-.14,0-.21.01-.06,0-.11-.01-.17-.01-.07,0-.14,0-.21.01-.06,0-.11-.01-.17-.01-.07,0-.14,0-.21.01-.06,0-.11-.01-.17-.01-.07,0-.14,0-.21.01-.06,0-.11-.01-.17-.01-.07,0-.14,0-.21.01-.06,0-.11-.01-.17-.01-.07,0-.14,0-.21.01-.06,0-.11-.01-.17-.01-.07,0-.14,0-.21.01-.06,0-.11-.01-.17-.01-.07,0-.14,0-.21.01-.06,0-.11-.01-.17-.01-.07,0-.14,0-.21.01-.06,0-.11-.01-.17-.01-.07,0-.14,0-.21.01-.06,0-.11-.01-.17-.01-.07,0-.14,0-.21.01-.06,0-.11-.01-.17-.01-.07,0-.14,0-.21.01-.06,0-.11-.01-.17-.01-.07,0-.14,0-.21.01-.06,0-.11-.01-.17-.01-.07,0-.14,0-.21.01-.06,0-.11-.01-.17-.01-.07,0-.14,0-.21.01-.06,0-.11-.01-.17-.01-.07,0-.14,0-.21.01-.06,0-.11-.01-.17-.01-.07,0-.14,0-.21.01-.06,0-.11-.01-.17-.01-.07,0-.14,0-.21.01-.06,0-.11-.01-.17-.01-.07,0-.14,0-.21.01-.06,0-.11-.01-.17-.01-.07,0-.14,0-.21.01-.06,0-.11-.01-.17-.01-.07,0-.14,0-.21.01-.06,0-.11-.01-.17-.01-.07,0-.14,0-.21.01-.06,0-.11-.01-.17-.01-.07,0-.14,0-.21.01-.06,0-.11-.01-.17-.01-.07,0-.14,0-.21.01-.06,0-.11-.01-.17-.01-.07,0-.14,0-.21.01-.06,0-.11-.01-.17-.01-.07,0-.14,0-.21.01-.06,0-.11-.01-.17-.01-.07,0-.14,0-.21.01-.06,0-.11-.01-.17-.01-.07,0-.14,0-.21.01-.06,0-.11-.01-.17-.01-.07,0-.14,0-.21.01-.06,0-.11-.01-.17-.01-.07,0-.14,0-.21.01-.06,0-.11-.01-.17-.01-.07,0-.14,0-.21.01-.06,0-.11-.01-.17-.01C17.67,103.69.65,120.24.02,141.36c-.3,10.39,3.55,20.24,10.84,27.77,7.45,7.68,17.86,12.08,28.55,12.08.08,0,.16,0,.23,0,.05,0,.1,0,.14,0,.08,0,.16,0,.23,0,.05,0,.1,0,.14,0,.08,0,.16,0,.23,0,.05,0,.1,0,.14,0,.08,0,.16,0,.23,0,.05,0,.1,0,.14,0,.08,0,.16,0,.23,0,.05,0,.1,0,.14,0,.08,0,.16,0,.23,0,.05,0,.1,0,.14,0,.08,0,.16,0,.23,0,.05,0,.1,0,.14,0,.08,0,.16,0,.23,0,.05,0,.1,0,.14,0,.08,0,.16,0,.23,0,.05,0,.1,0,.14,0,.08,0,.16,0,.23,0,.05,0,.1,0,.14,0,.08,0,.16,0,.23,0,.05,0,.1,0,.14,0,.08,0,.16,0,.23,0,.05,0,.1,0,.14,0,.08,0,.16,0,.23,0,.05,0,.1,0,.14,0,.08,0,.16,0,.23,0,.05,0,.1,0,.14,0,.08,0,.16,0,.23,0,.05,0,.1,0,.14,0,.08,0,.16,0,.23,0,.05,0,.1,0,.14,0,.08,0,.16,0,.23,0,.05,0,.1,0,.14,0,.08,0,.16,0,.23,0,.05,0,.1,0,.14,0,.08,0,.16,0,.23,0,.05,0,.1,0,.14,0,.08,0,.16,0,.23,0,.05,0,.1,0,.14,0,.08,0,.16,0,.23,0,.05,0,.1,0,.14,0,.08,0,.16,0,.23,0,.05,0,.1,0,.14,0,.08,0,.16,0,.23,0,.05,0,.1,0,.14,0,.08,0,.16,0,.23,0,.05,0,.1,0,.14,0,.08,0,.16,0,.23,0,.05,0,.1,0,.14,0,.08,0,.16,0,.23,0,.05,0,.1,0,.14,0,.08,0,.16,0,.23,0,.05,0,.1,0,.14,0,.08,0,.16,0,.23,0,.05,0,.1,0,.14,0,.08,0,.16,0,.23,0,.05,0,.1,0,.14,0,.08,0,.16,0,.23,0,.05,0,.1,0,.14,0,.08,0,.16,0,.23,0,.05,0,.1,0,.14,0,.08,0,.16,0,.23,0,.05,0,.1,0,.14,0,.04,0,.09,0,.13,0l-2.6,1.57c-10.06,6.11-16.75,16.29-18.32,27.97-1.57,11.65,2.13,23.26,10.21,31.82,7.27,7.73,17.18,11.98,27.87,11.98.08,0,.15,0,.23,0,.05,0,.1,0,.15,0,.08,0,.15,0,.23,0,.05,0,.1,0,.15,0,.08,0,.15,0,.23,0,.05,0,.1,0,.15,0,.08,0,.15,0,.23,0,.05,0,.1,0,.15,0,.08,0,.15,0,.23,0,.05,0,.1,0,.15,0,.08,0,.15,0,.23,0,.05,0,.1,0,.15,0,.08,0,.15,0,.23,0,.05,0,.1,0,.15,0,.08,0,.15,0,.23,0,.05,0,.1,0,.15,0,.08,0,.15,0,.23,0,.05,0,.1,0,.15,0,.08,0,.15,0,.23,0,.05,0,.1,0,.15,0,.08,0,.15,0,.23,0,.05,0,.1,0,.15,0,.08,0,.15,0,.23,0,.05,0,.1,0,.15,0,.08,0,.15,0,.23,0,.05,0,.1,0,.15,0,.08,0,.15,0,.23,0,.05,0,.1,0,.15,0,.08,0,.15,0,.23,0,.05,0,.1,0,.15,0,.08,0,.15,0,.23,0,.05,0,.1,0,.15,0,.08,0,.15,0,.23,0,.05,0,.1,0,.15,0,.08,0,.15,0,.23,0,.05,0,.1,0,.15,0,.08,0,.15,0,.23,0,.05,0,.1,0,.15,0,.08,0,.15,0,.23,0,.05,0,.1,0,.15,0,.08,0,.15,0,.23,0,.05,0,.1,0,.15,0,.08,0,.15,0,.23,0,.05,0,.1,0,.15,0,.08,0,.15,0,.23,0,.05,0,.1,0,.15,0,.08,0,.15,0,.23,0,.05,0,.1,0,.15,0,.08,0,.15,0,.23,0,.05,0,.1,0,.15,0,.08,0,.15,0,.23,0,.05,0,.1,0,.15,0,.08,0,.15,0,.23,0,.05,0,.1,0,.15,0,.08,0,.15,0,.23,0,.05,0,.1,0,.15,0,.08,0,.15,0,.23,0,.05,0,.1,0,.15,0,.08,0,.15,0,.23,0,.05,0,.1,0,.15,0,.08,0,.15,0,.23,0,.05,0,.1,0,.15,0,.08,0,.15,0,.23,0,.05,0,.1,0,.15,0,.08,0,.15,0,.23,0,.05,0,.1,0,.15,0,.08,0,.15,0,.23,0,.05,0,.1,0,.15,0,.08,0,.15,0,.23,0,.05,0,.1,0,.15,0,.08,0,.15,0,.23,0,.05,0,.1,0,.15,0,.08,0,.15,0,.23,0,.05,0,.1,0,.15,0,.08,0,.15,0,.23,0,.05,0,.1,0,.15,0,.08,0,.15,0,.23,0,.05,0,.1,0,.15,0,.08,0,.15,0,.23,0,.05,0,.1,0,.15,0,.08,0,.15,0,.23,0,.05,0,.1,0,.15,0,.08,0,.15,0,.23,0,.05,0,.1,0,.15,0,.08,0,.15,0,.23,0,.05,0,.1,0,.15,0,.08,0,.15,0,.23,0,.05,0,.1,0,.15,0,.08,0,.15,0,.23,0,.05,0,.1,0,.15,0,.08,0,.15,0,.23,0,.05,0,.1,0,.15,0,.08,0,.15,0,.23,0,.05,0,.1,0,.15,0,.08,0,.15,0,.23,0,.05,0,.1,0,.15,0,.08,0,.15,0,.23,0,.05,0,.1,0,.15,0,.08,0,.15,0,.23,0,.05,0,.1,0,.15,0,.08,0,.15,0,.23,0,.05,0,.1,0,.15,0,.08,0,.15,0,.23,0,.05,0,.1,0,.15,0,.08,0,.15,0,.23,0,.05,0,.1,0,.15,0,.08,0,.15,0,.23,0,.05,0,.1,0,.15,0,.08,0,.15,0,.23,0,.05,0,.1,0,.15,0,.08,0,.15,0,.23,0,.05,0,.1,0,.15,0,.08,0,.15,0,.23,0,.05,0,.1,0,.15,0,.08,0,.15,0,.23,0,.05,0,.1,0,.15,0,.08,0,.15,0,.23,0,.05,0,.1,0,.15,0,.08,0,.15,0,.23,0,.05,0,.1,0,.15,0,.08,0,.15,0,.23,0,.05,0,.1,0,.15,0,.08,0,.15,0,.23,0,.05,0,.1,0,.15,0,.08,0,.15,0,.23,0,.05,0,.1,0,.15,0,.08,0,.15,0,.23,0,.05,0,.1,0,.15,0,.08,0,.15,0,.23,0,.05,0,.1,0,.15,0,.08,0,.15,0,.23,0,.05,0,.1,0,.15,0,.08,0,.15,0,.23,0,.05,0,.1,0,.15,0,.08,0,.15,0,.23,0,.05,0,.1,0,.15,0,.08,0,.15,0,.23,0,.05,0,.1,0,.15,0,.08,0,.15,0,.23,0,.05,0,.1,0,.15,0,.08,0,.15,0,.23,0,.05,0,.1,0,.15,0,.08,0,.15,0,.23,0,.05,0,.1,0,.15,0,.08,0,.15,0,.23,0,.05,0,.1,0,.15,0,.08,0,.15,0,.23,0,.05,0,.1,0,.15,0,.08,0,.15,0,.23,0,.05,0,.1,0,.15,0,.08,0,.15,0,.23,0,.05,0,.1,0,.15,0,.08,0,.15,0,.23,0,.05,0,.1,0,.15,0,.08,0,.15,0,.23,0,.05,0,.1,0,.15,0,.08,0,.15,0,.23,0,.05,0,.1,0,.15,0,.08,0,.15,0,.23,0,.05,0,.1,0,.15,0,.08,0,.15,0,.23,0,.05,0,.1,0,.15,0,.08,0,.15,0,.23,0,.05,0,.1,0,.15,0,.08,0,.15,0,.23,0,.05,0,.1,0,.15,0,.08,0,.15,0,.23,0,.05,0,.1,0,.15,0,.08,0,.15,0,.23,0,.05,0,.1,0,.15,0,.08,0,.15,0,.23,0,.05,0,.1,0,.15,0,.08,0,.15,0,.23,0,.05,0,.1,0,.15,0,.08,0,.15,0,.23,0,.05,0,.1,0,.15,0,.08,0,.15,0,.23,0,.05,0,.1,0,.15,0,.08,0,.15,0,.23,0,.05,0,.1,0,.15,0,.08,0,.15,0,.23,0,.05,0,.1,0,.15,0,.08,0,.15,0,.23,0,.05,0,.1,0,.15,0,.08,0,.15,0,.23,0,.05,0,.1,0,.15,0,.08,0,.15,0,.23,0,.05,0,.1,0,.15,0,.08,0,.15,0,.23,0,.04,0,.08,0,.11,0,1.18,5.51,3.55,10.77,7.07,15.4,7.14,9.37,17.96,14.95,29.74,15.3h61.86c11.78,0,22.8-5.4,30.17-14.79,3.66-4.67,6.15-9.97,7.45-15.53,0,0,.01,0,.02,0,.05,0,.1,0,.15,0,.07,0,.15,0,.22,0,.05,0,.1,0,.15,0,.08,0,.15,0,.23,0,.05,0,.1,0,.15,0,.08,0,.15,0,.23,0,.05,0,.1,0,.15,0,.07,0,.15,0,.22,0,.05,0,.1,0,.15,0,.08,0,.15,0,.23,0,.05,0,.1,0,.15,0,.08,0,.15,0,.23,0,.05,0,.1,0,.15,0,.08,0,.15,0,.23,0,.05,0,.1,0,.15,0,.08,0,.15,0,.23,0,.05,0,.1,0,.15,0,.08,0,.15,0,.23,0,.05,0,.1,0,.15,0,.07,0,.15,0,.22,0,.05,0,.1,0,.15,0,.08,0,.15,0,.23,0,.05,0,.1,0,.15,0,.08,0,.15,0,.23,0,.05,0,.1,0,.15,0,.07,0,.15,0,.22,0,.05,0,.1,0,.15,0,.08,0,.15,0,.22,0,.05,0,.1,0,.15,0,.08,0,.15,0,.23,0,.05,0,.1,0,.15,0,.08,0,.15,0,.23,0,.05,0,.1,0,.15,0,.08,0,.15,0,.23,0,.05,0,.1,0,.15,0,.08,0,.15,0,.23,0,.05,0,.1,0,.15,0,.07,0,.15,0,.22,0,.05,0,.1,0,.15,0,.08,0,.15,0,.23,0,.05,0,.1,0,.15,0,.08,0,.15,0,.23,0,.05,0,.1,0,.15,0,.08,0,.15,0,.23,0,.05,0,.1,0,.15,0,.07,0,.15,0,.22,0,.05,0,.1,0,.15,0,.08,0,.15,0,.23,0,.05,0,.1,0,.15,0,.08,0,.15,0,.23,0,.05,0,.1,0,.15,0,.08,0,.15,0,.23,0,.05,0,.1,0,.15,0,.08,0,.15,0,.23,0,.05,0,.1,0,.15,0,.07,0,.15,0,.22,0,.05,0,.1,0,.15,0,.08,0,.15,0,.22,0,.05,0,.1,0,.15,0,.08,0,.15,0,.23,0,.05,0,.1,0,.15,0,.08,0,.15,0,.23,0,.05,0,.1,0,.15,0,.07,0,.15,0,.22,0,.05,0,.1,0,.15,0,.08,0,.15,0,.23,0,.05,0,.1,0,.15,0,.08,0,.15,0,.23,0,.05,0,.1,0,.15,0,.08,0,.15,0,.23,0,.05,0,.1,0,.15,0,.08,0,.15,0,.23,0,.05,0,.1,0,.15,0,.08,0,.15,0,.23,0,.05,0,.1,0,.15,0,.07,0,.15,0,.22,0,.05,0,.1,0,.15,0,.08,0,.15,0,.23,0,.05,0,.1,0,.15,0,.08,0,.15,0,.23,0,.05,0,.1,0,.15,0,.07,0,.15,0,.22,0,.05,0,.1,0,.15,0,.08,0,.15,0,.23,0,.05,0,.1,0,.15,0,.08,0,.15,0,.23,0,.05,0,.1,0,.15,0,.08,0,.15,0,.23,0,.05,0,.1,0,.15,0,.08,0,.15,0,.23,0,.05,0,.1,0,.15,0,.08,0,.15,0,.23,0,.05,0,.1,0,.15,0,.07,0,.15,0,.22,0,.05,0,.1,0,.15,0,.08,0,.15,0,.23,0,.05,0,.1,0,.15,0,.08,0,.15,0,.23,0,.05,0,.1,0,.15,0,.07,0,.15,0,.22,0,.05,0,.1,0,.15,0,.08,0,.15,0,.23,0,.05,0,.1,0,.15,0,.08,0,.15,0,.23,0,.05,0,.1,0,.15,0,.08,0,.15,0,.23,0,.05,0,.1,0,.15,0,.08,0,.15,0,.23,0,.05,0,.1,0,.15,0,.08,0,.15,0,.23,0,.05,0,.1,0,.15,0,.07,0,.15,0,.22,0,.05,0,.1,0,.15,0,.08,0,.15,0,.23,0,.05,0,.1,0,.15,0,.08,0,.15,0,.23,0,.05,0,.1,0,.15,0,.07,0,.15,0,.22,0,.05,0,.1,0,.15,0,.08,0,.15,0,.22,0,.05,0,.1,0,.15,0,.08,0,.15,0,.23,0,.05,0,.1,0,.15,0,.08,0,.15,0,.23,0,.05,0,.1,0,.15,0,.08,0,.15,0,.23,0,.05,0,.1,0,.15,0,.08,0,.15,0,.23,0,.05,0,.1,0,.15,0,.07,0,.15,0,.22,0,.05,0,.1,0,.15,0,.08,0,.15,0,.23,0,.05,0,.1,0,.15,0,.08,0,.15,0,.23,0,.05,0,.1,0,.15,0,.08,0,.15,0,.23,0,.05,0,.1,0,.15,0,.07,0,.15,0,.22,0,.05,0,.1,0,.15,0,.08,0,.15,0,.23,0,.05,0,.1,0,.15,0,.08,0,.15,0,.23,0,.05,0,.1,0,.15,0,.08,0,.15,0,.23,0,.05,0,.1,0,.15,0,.08,0,.15,0,.23,0,.05,0,.1,0,.15,0,.07,0,.15,0,.22,0,.05,0,.1,0,.15,0,.08,0,.15,0,.23,0,.05,0,.1,0,.15,0,.08,0,.15,0,.23,0,.05,0,.1,0,.15,0,.08,0,.15,0,.23,0,.05,0,.1,0,.15,0,.07,0,.15,0,.22,0,.05,0,.1,0,.15,0,.08,0,.15,0,.23,0,.05,0,.1,0,.15,0,.08,0,.15,0,.23,0,.05,0,.1,0,.15,0,.08,0,.15,0,.23,0,.05,0,.1,0,.15,0,.08,0,.15,0,.23,0,.05,0,.1,0,.15,0,.07,0,.15,0,.22,0,.05,0,.1,0,.15,0,.08,0,.15,0,.22,0,.05,0,.1,0,.15,0,.08,0,.15,0,.23,0,.05,0,.1,0,.15,0,.08,0,.15,0,.23,0,.05,0,.1,0,.15,0,.07,0,.15,0,.22,0,.05,0,.1,0,.15,0,.08,0,.15,0,.23,0,.05,0,.1,0,.15,0,.08,0,.15,0,.23,0,.05,0,.1,0,.15,0,.08,0,.15,0,.23,0,.05,0,.1,0,.15,0,.08,0,.15,0,.23,0,.05,0,.1,0,.15,0,.08,0,.15,0,.23,0,.05,0,.1,0,.15,0,.07,0,.15,0,.22,0,.05,0,.1,0,.15,0,.08,0,.15,0,.23,0,.05,0,.1,0,.15,0,.08,0,.15,0,.23,0,9.93,0,19.38-3.75,26.6-10.56,8.74-8.23,13.02-19.91,11.75-32.02-1.29-12.29-8.36-23.46-18.92-29.87l-1.52-.92s.09,0,.14,0c.07,0,.14,0,.21-.01Z"/>
        <g>
          <path class="cls-2" d="M43.83,122.04c-13.08-3.2-25.7,6.5-26.09,19.84-.42,14.01,13.26,24.28,26.88,20.95l49.28-12.05c8.64-2.11,8.64-14.39,0-16.5l-50.07-12.24Z"/>
          <path class="cls-2" d="M87.33,58.21c-6.99-11.51-22.77-13.58-32.48-4.42-10.2,9.62-7.79,26.54,4.2,33.82l43.37,26.33c7.6,4.61,16.29-4.07,11.67-11.67l-26.75-44.06Z"/>
          <path class="cls-2" d="M163.22,43.83c3.2-13.08-6.5-25.7-19.84-26.09-14.01-.42-24.28,13.26-20.95,26.88l12.05,49.28c2.11,8.64,14.39,8.64,16.5,0l12.24-50.07Z"/>
          <path class="cls-2" d="M227.05,87.33c11.51-6.99,13.58-22.77,4.42-32.48-9.62-10.2-26.54-7.79-33.82,4.2l-26.33,43.37c-4.61,7.6,4.07,16.29,11.67,11.67l44.06-26.75Z"/>
          <path class="cls-2" d="M241.42,163.22c13.08,3.2,25.7-6.5,26.09-19.84.42-14.01-13.26-24.28-26.88-20.95l-49.28,12.05c-8.64,2.11-8.64,14.39,0,16.5l50.07,12.24Z"/>
          <path class="cls-2" d="M197.93,227.04c6.99,11.51,22.77,13.58,32.48,4.42,10.2-9.62,7.79-26.54-4.2-33.82l-43.37-26.33c-7.6-4.61-16.29,4.07-11.67,11.67l26.75,44.06Z"/>
          <path class="cls-2" d="M122.04,241.42c-3.2,13.08,6.5,25.7,19.84,26.09,14.01.42,24.28-13.26,20.95-26.88l-12.05-49.28c-2.11-8.64-14.39-8.64-16.5,0l-12.24,50.07Z"/>
          <path class="cls-2" d="M58.21,197.93c-11.51,6.99-13.58,22.77-4.42,32.48,9.62,10.2,26.54,7.79,33.82-4.2l26.33-43.37c4.61-7.6-4.07-16.29-11.67-11.67l-44.06,26.75Z"/>
        </g>
      </g>
      <g id="logotype">
        <path class="cls-1" d="M429.47,241.09V44.6h45.2l60.07,122.67,59.51-122.67h45.2v196.49h-37.9V109.16l-51.93,104.42h-30.03l-52.21-104.42v131.93h-37.9Z"/>
        <path class="cls-1" d="M697.26,80.24c-6.74,0-12.31-2.01-16.7-6.04-4.4-4.02-6.6-9.12-6.6-15.3s2.2-11.27,6.6-15.29c4.4-4.03,9.97-6.04,16.7-6.04s12.58,2.01,16.98,6.04c4.4,4.03,6.6,9.12,6.6,15.29s-2.2,11.28-6.6,15.3c-4.4,4.03-10.06,6.04-16.98,6.04ZM678.17,241.09V99.61h37.9v141.48h-37.9Z"/>
        <path class="cls-1" d="M817.12,244.46c-12.91,0-24.47-3.19-34.67-9.54-10.21-6.36-18.21-15.16-24-26.39-5.8-11.23-8.7-23.86-8.7-37.89s2.95-27.18,8.85-38.31c5.89-11.14,14.03-19.93,24.42-26.39,10.38-6.45,22.03-9.68,34.95-9.68,10.11,0,18.99,1.87,26.67,5.61,7.67,3.74,13.84,9.07,18.53,16V38.98h37.89v202.1h-33.68l-4.21-19.37c-2.81,3.93-6.32,7.68-10.53,11.23-4.21,3.55-9.22,6.36-15.02,8.42-5.8,2.06-12.63,3.09-20.49,3.09ZM826.1,211.33c7.48,0,14.08-1.73,19.79-5.19,5.71-3.46,10.15-8.28,13.34-14.46,3.18-6.17,4.77-13.28,4.77-21.33s-1.59-15.16-4.77-21.34c-3.19-6.17-7.63-10.99-13.34-14.45-5.71-3.46-12.31-5.19-19.79-5.19s-13.57,1.73-19.37,5.19c-5.8,3.47-10.34,8.28-13.61,14.45-3.27,6.17-4.91,13.19-4.91,21.06s1.64,15.44,4.91,21.61c3.27,6.18,7.77,11,13.48,14.46,5.71,3.46,12.21,5.19,19.51,5.19Z"/>
        <path class="cls-1" d="M938.1,241.09V38.98h37.9v202.1h-37.9Z"/>
        <path class="cls-1" d="M1031.02,302.84l34.24-77.47h-8.42l-56.7-125.75h41.26l40.42,91.23,36.49-91.23h40.14l-87.3,203.23h-40.14Z"/>
        <path class="cls-1" d="M1178.38,242.49c-7.12,0-12.82-2.11-17.12-6.32-4.31-4.21-6.46-9.41-6.46-15.58s2.15-11.37,6.46-15.58c4.3-4.21,10.01-6.32,17.12-6.32,6.74,0,12.26,2.11,16.56,6.32,4.3,4.21,6.46,9.41,6.46,15.58s-2.16,11.37-6.46,15.58c-4.31,4.21-9.82,6.32-16.56,6.32Z"/>
        <path class="cls-1" d="M1279.72,244.46c-11.79,0-21.52-1.92-29.19-5.76-7.68-3.83-13.33-8.98-16.98-15.44-3.65-6.46-5.48-13.61-5.48-21.47,0-8.61,2.2-16.18,6.6-22.74,4.4-6.54,11.04-11.69,19.93-15.44,8.89-3.74,20.07-5.61,33.55-5.61h35.09c0-6.92-.94-12.68-2.81-17.26-1.87-4.58-4.77-8-8.7-10.25-3.93-2.24-9.17-3.37-15.72-3.37-7.12,0-13.15,1.55-18.1,4.63-4.96,3.09-8,7.82-9.13,14.17h-36.77c.94-10.1,4.25-18.85,9.97-26.24,5.71-7.39,13.28-13.15,22.74-17.26,9.45-4.11,19.98-6.17,31.58-6.17,13.28,0,24.8,2.24,34.53,6.73,9.73,4.49,17.21,10.95,22.46,19.37,5.24,8.42,7.86,18.81,7.86,31.16v87.58h-32l-4.21-21.62c-2.06,3.75-4.49,7.12-7.3,10.11-2.81,2.99-6.09,5.61-9.83,7.86-3.75,2.24-7.96,3.97-12.63,5.19s-9.82,1.83-15.44,1.83ZM1288.7,215.26c4.87,0,9.22-.89,13.06-2.67,3.83-1.78,7.16-4.21,9.96-7.3,2.81-3.09,5.01-6.64,6.6-10.67,1.59-4.02,2.66-8.37,3.23-13.05v-.28h-28.91c-5.8,0-10.53.7-14.17,2.1-3.65,1.4-6.32,3.42-8,6.04-1.68,2.62-2.52,5.61-2.52,8.98,0,3.75.84,6.83,2.52,9.26,1.68,2.43,4.11,4.31,7.3,5.61,3.18,1.31,6.83,1.96,10.95,1.96Z"/>
        <path class="cls-1" d="M1416.42,80.24c-6.74,0-12.31-2.01-16.7-6.04-4.4-4.02-6.6-9.12-6.6-15.3s2.2-11.27,6.6-15.29c4.39-4.03,9.96-6.04,16.7-6.04s12.58,2.01,16.98,6.04c4.39,4.03,6.6,9.12,6.6,15.29s-2.2,11.28-6.6,15.3c-4.4,4.03-10.06,6.04-16.98,6.04ZM1397.33,241.09V99.61h37.89v141.48h-37.89Z"/>
      </g>
    </g>
  </g>
</svg>