<?xml version="1.0" encoding="UTF-8"?>
<svg id="Layer_2" data-name="Layer 2" xmlns="http://www.w3.org/2000/svg" viewBox="0 0 1024 1024">
  <defs>
    <style>
      .cls-1 {
        fill: #060707;
      }

      .cls-1, .cls-2 {
        stroke-width: 0px;
      }

      .cls-2 {
        fill: #c1f701;
      }
    </style>
  </defs>
  <g id="Layer_1-2" data-name="Layer 1">
    <g id="app_icon" data-name="app icon">
      <rect class="cls-2" width="1024" height="1024"/>
      <g>
        <path class="cls-1" d="M781.56,598.03c.12,0,.25.02.37.02.15,0,.3-.02.46-.02.12,0,.25.02.37.02.16,0,.31-.02.46-.02.12,0,.25.02.37.02.16,0,.31-.02.46-.02.12,0,.25.02.37.02.16,0,.3-.02.46-.02.12,0,.25.02.37.02.16,0,.3-.02.46-.02.12,0,.25.02.37.02.16,0,.3-.02.46-.02.12,0,.25.02.37.02.15,0,.3-.02.46-.02.13,0,.25.02.37.02.16,0,.3-.02.46-.02.12,0,.25.02.37.02.16,0,.3-.02.46-.02.12,0,.25.02.37.02.15,0,.3-.02.46-.02.12,0,.25.02.37.02.16,0,.31-.02.46-.02.12,0,.25.02.37.02.16,0,.31-.02.46-.02.12,0,.25.02.37.02.16,0,.31-.02.46-.02.12,0,.25.02.37.02.16,0,.3-.02.46-.02.12,0,.25.02.37.02.16,0,.3-.02.46-.02.12,0,.25.02.37.02.15,0,.3-.02.46-.02.13,0,.25.02.37.02.16,0,.3-.02.46-.02.12,0,.25.02.37.02.16,0,.3-.02.46-.02.12,0,.25.02.37.02.15,0,.3-.02.46-.02.12,0,.25.02.37.02.16,0,.31-.02.46-.02.12,0,.25.02.37.02.16,0,.31-.02.46-.02.12,0,.25.02.37.02.16,0,.31-.02.46-.02.12,0,.25.02.37.02.16,0,.3-.02.46-.02.12,0,.25.02.37.02.16,0,.3-.02.46-.02.12,0,.25.02.37.02.15,0,.3-.02.46-.02.13,0,.25.02.37.02.16,0,.3-.02.46-.02.12,0,.25.02.37.02.16,0,.3-.02.46-.02.12,0,.25.02.37.02.15,0,.3-.02.46-.02.12,0,.25.02.37.02.16,0,.31-.02.46-.02.12,0,.25.02.37.02.16,0,.31-.02.46-.02.12,0,.25.02.37.02.16,0,.31-.02.46-.02.12,0,.25.02.37.02.16,0,.3-.02.46-.02.12,0,.25.02.37.02,46.64,0,84.26-36.56,85.66-83.25.67-22.95-7.78-44.73-23.91-61.36-16.46-16.96-39.47-26.65-63.09-26.65-.13,0-.26.02-.38.02-.15,0-.3-.02-.45-.02-.13,0-.26.02-.38.02-.15,0-.3-.02-.45-.02-.13,0-.26.02-.38.02-.15,0-.3-.02-.45-.02-.13,0-.26.02-.38.02-.15,0-.3-.02-.45-.02-.13,0-.26.02-.38.02-.15,0-.3-.02-.45-.02-.13,0-.26.02-.38.02-.15,0-.3-.02-.45-.02-.13,0-.26.02-.38.02-.15,0-.3-.02-.45-.02-.13,0-.25.02-.38.02-.15,0-.3-.02-.45-.02-.13,0-.25.02-.38.02-.15,0-.3-.02-.45-.02-.13,0-.26.02-.38.02-.15,0-.3-.02-.45-.02-.13,0-.26.02-.38.02-.15,0-.3-.02-.45-.02-.13,0-.26.02-.38.02-.15,0-.3-.02-.45-.02-.13,0-.26.02-.38.02-.15,0-.3-.02-.45-.02-.13,0-.26.02-.38.02-.15,0-.3-.02-.45-.02-.13,0-.26.02-.38.02-.15,0-.3-.02-.45-.02-.13,0-.26.02-.38.02-.15,0-.3-.02-.45-.02-.13,0-.25.02-.38.02-.15,0-.3-.02-.45-.02-.13,0-.25.02-.38.02-.15,0-.3-.02-.45-.02-.13,0-.26.02-.38.02-.15,0-.3-.02-.45-.02-.13,0-.26.02-.38.02-.15,0-.3-.02-.45-.02-.13,0-.26.02-.38.02-.15,0-.3-.02-.45-.02-.13,0-.26.02-.38.02-.15,0-.3-.02-.45-.02-.13,0-.26.02-.38.02-.15,0-.3-.02-.45-.02-.13,0-.26.02-.38.02-.15,0-.3-.02-.45-.02-.13,0-.26.02-.38.02-.15,0-.3-.02-.45-.02-.13,0-.25.02-.38.02-.15,0-.3-.02-.45-.02-.13,0-.25.02-.38.02-.15,0-.3-.02-.45-.02-.13,0-.26.02-.38.02-.15,0-.3-.02-.45-.02-.13,0-.26.02-.38.02-.15,0-.3-.02-.45-.02-.13,0-.26.02-.38.02-.15,0-.3-.02-.45-.02-.13,0-.26.02-.38.02-.15,0-.3-.02-.45-.02-.13,0-.26.02-.38.02-.15,0-.3-.02-.45-.02-.12,0-.24.02-.36.02l5.76-3.49c22.23-13.55,37.01-36.05,40.48-61.86,3.53-25.75-4.7-51.39-22.51-70.32-16.07-17.08-37.96-26.48-61.64-26.48-.17,0-.33.02-.5.02-.11,0-.22-.02-.33-.02-.17,0-.33.02-.5.02-.11,0-.22-.02-.33-.02-.17,0-.33.02-.5.02-.11,0-.22-.02-.33-.02-.17,0-.33.02-.5.02-.11,0-.22-.02-.33-.02-.17,0-.33.02-.5.02-.11,0-.22-.02-.33-.02-.17,0-.33.02-.5.02-.11,0-.22-.02-.33-.02-.17,0-.33.02-.5.02-.11,0-.22-.02-.33-.02-.17,0-.33.02-.5.02-.11,0-.22-.02-.33-.02-.17,0-.33.02-.5.02-.11,0-.22-.02-.33-.02-.17,0-.33.02-.5.02-.11,0-.22-.02-.33-.02-.17,0-.33.02-.5.02-.11,0-.22-.02-.33-.02-.17,0-.33.02-.5.02-.11,0-.22-.02-.33-.02-.17,0-.33.02-.5.02-.11,0-.22-.02-.33-.02-.17,0-.33.02-.5.02-.11,0-.22-.02-.33-.02-.17,0-.33.02-.5.02-.11,0-.22-.02-.33-.02-.17,0-.33.02-.5.02-.11,0-.22-.02-.33-.02-.17,0-.33.02-.5.02-.11,0-.22-.02-.33-.02-.17,0-.33.02-.5.02-.11,0-.22-.02-.33-.02-.17,0-.33.02-.5.02-.11,0-.22-.02-.33-.02-.17,0-.33.02-.5.02-.11,0-.22-.02-.33-.02-.17,0-.33.02-.5.02-.11,0-.22-.02-.33-.02-.17,0-.33.02-.5.02-.11,0-.22-.02-.33-.02-.17,0-.33.02-.5.02-.11,0-.22-.02-.33-.02-.17,0-.33.02-.5.02-.11,0-.22-.02-.33-.02-.17,0-.33.02-.5.02-.11,0-.22-.02-.33-.02-.17,0-.33.02-.5.02-.11,0-.22-.02-.33-.02-.17,0-.33.02-.5.02-.11,0-.22-.02-.33-.02-.17,0-.33.02-.5.02-.11,0-.22-.02-.33-.02-.17,0-.33.02-.5.02-.11,0-.22-.02-.33-.02-.17,0-.33.02-.5.02-.11,0-.22-.02-.33-.02-.17,0-.33.02-.5.02-.11,0-.22-.02-.33-.02-.17,0-.33.02-.5.02-.11,0-.22-.02-.33-.02-.17,0-.33.02-.5.02-.11,0-.22-.02-.33-.02-.17,0-.33.02-.5.02-.11,0-.22-.02-.33-.02-.17,0-.33.02-.5.02-.11,0-.22-.02-.33-.02-.17,0-.33.02-.5.02-.11,0-.22-.02-.33-.02-.17,0-.33.02-.5.02-.11,0-.22-.02-.33-.02-.17,0-.33.02-.5.02-.11,0-.22-.02-.33-.02-.17,0-.33.02-.5.02-.11,0-.22-.02-.33-.02-.17,0-.33.02-.5.02-.11,0-.22-.02-.33-.02-.17,0-.33.02-.5.02-.11,0-.22-.02-.33-.02-.17,0-.33.02-.5.02-.11,0-.22-.02-.33-.02-.17,0-.33.02-.5.02-.11,0-.22-.02-.33-.02-.17,0-.33.02-.5.02-.11,0-.22-.02-.33-.02-.17,0-.33.02-.5.02-.11,0-.22-.02-.33-.02-.17,0-.33.02-.5.02-.11,0-.22-.02-.33-.02-.17,0-.33.02-.5.02-.11,0-.22-.02-.33-.02-.17,0-.33.02-.5.02-.11,0-.22-.02-.33-.02-.17,0-.33.02-.5.02-.11,0-.22-.02-.33-.02-.17,0-.33.02-.5.02-.11,0-.22-.02-.33-.02-.17,0-.33.02-.5.02-.11,0-.22-.02-.33-.02-.17,0-.33.02-.5.02-.11,0-.22-.02-.33-.02-.17,0-.33.02-.5.02-.11,0-.22-.02-.33-.02-.17,0-.33.02-.5.02-.11,0-.22-.02-.33-.02-.17,0-.33.02-.5.02-.11,0-.22-.02-.33-.02-.17,0-.33.02-.5.02-.11,0-.22-.02-.33-.02-.17,0-.33.02-.5.02-.11,0-.22-.02-.33-.02-.17,0-.33.02-.5.02-.11,0-.22-.02-.33-.02-.17,0-.33.02-.5.02-.11,0-.22-.02-.33-.02-.17,0-.33.02-.5.02-.11,0-.22-.02-.33-.02-.17,0-.33.02-.5.02-.11,0-.22-.02-.33-.02-.17,0-.33.02-.5.02-.11,0-.22-.02-.33-.02-.17,0-.33.02-.5.02-.11,0-.22-.02-.33-.02-.17,0-.33.02-.5.02-.11,0-.22-.02-.33-.02-.17,0-.33.02-.5.02-.11,0-.22-.02-.33-.02-.17,0-.33.02-.5.02-.11,0-.22-.02-.33-.02-.17,0-.33.02-.5.02-.11,0-.22-.02-.33-.02-.17,0-.33.02-.5.02-.11,0-.22-.02-.33-.02-.17,0-.33.02-.5.02-.11,0-.22-.02-.33-.02-.17,0-.33.02-.5.02-.11,0-.22-.02-.33-.02-.17,0-.33.02-.5.02-.11,0-.22-.02-.33-.02-.17,0-.33.02-.5.02-.11,0-.22-.02-.33-.02-.17,0-.33.02-.5.02-.11,0-.22-.02-.33-.02-.17,0-.33.02-.5.02-.11,0-.22-.02-.33-.02-.17,0-.33.02-.5.02-.11,0-.22-.02-.33-.02-.17,0-.33.02-.5.02-.11,0-.22-.02-.33-.02-.17,0-.33.02-.5.02-.11,0-.22-.02-.33-.02-.17,0-.33.02-.5.02-.11,0-.22-.02-.33-.02-.17,0-.33.02-.5.02-.11,0-.22-.02-.33-.02-.17,0-.33.02-.5.02-.11,0-.22-.02-.33-.02-.17,0-.33.02-.5.02-.11,0-.22-.02-.33-.02-.17,0-.33.02-.5.02-.11,0-.22-.02-.33-.02-.17,0-.33.02-.5.02-.11,0-.22-.02-.33-.02-.17,0-.33.02-.5.02-.11,0-.22-.02-.33-.02-.17,0-.33.02-.5.02-.11,0-.22-.02-.33-.02-.17,0-.33.02-.5.02-.11,0-.22-.02-.33-.02-.17,0-.33.02-.5.02-.11,0-.22-.02-.33-.02-.17,0-.33.02-.5.02-.11,0-.22-.02-.33-.02-.17,0-.33.02-.5.02-.11,0-.22-.02-.33-.02-.17,0-.33.02-.5.02-.11,0-.22-.02-.33-.02-.17,0-.33.02-.5.02-.11,0-.22-.02-.33-.02-.17,0-.33.02-.5.02-.11,0-.22-.02-.33-.02-.17,0-.33.02-.5.02-.11,0-.22-.02-.33-.02-.17,0-.33.02-.5.02-.11,0-.22-.02-.33-.02-.17,0-.33.02-.5.02-.08,0-.16-.01-.23-.01-2.61-12.18-7.87-23.81-15.65-34.04-15.79-20.71-39.69-33.03-65.67-33.76-.84-.06-2.58-.06-2.58-.06-.03,0-.06,0-.09,0-.42,0-.75,0-.75,0-.03,0-.06,0-.09,0-.41,0-.75,0-.75,0-.03,0-.06,0-.09,0-.41,0-.75,0-.75,0-.03,0-.06,0-.09,0-.41,0-.75,0-.75,0-.03,0-.06,0-.09,0-.41,0-.75,0-.75,0-.03,0-.06,0-.09,0-.41,0-.75,0-.75,0-.03,0-.06,0-.09,0-.41,0-.75,0-.75,0-.03,0-.06,0-.09,0-.41,0-.75,0-.75,0-.03,0-.06,0-.08,0-.42,0-.75,0-.75,0-.03,0-.06,0-.09,0-.42,0-.75,0-.75,0-.03,0-.06,0-.09,0-.41,0-.75,0-.75,0-.03,0-.06,0-.09,0-.41,0-.75,0-.75,0-.03,0-.06,0-.09,0-.41,0-.75,0-.75,0-.03,0-.06,0-.09,0-.41,0-.75,0-.75,0-.03,0-.06,0-.09,0-.41,0-.75,0-.75,0-.03,0-.06,0-.09,0-.41,0-.75,0-.75,0-.03,0-.06,0-.09,0-.41,0-.75,0-.75,0-.03,0-.06,0-.08,0-.42,0-.75,0-.75,0-.03,0-.06,0-.09,0-.42,0-.75,0-.75,0-.03,0-.06,0-.09,0-.42,0-.75,0-.75,0-.03,0-.06,0-.09,0-.41,0-.75,0-.75,0-.03,0-.06,0-.09,0-.41,0-.75,0-.75,0-.03,0-.06,0-.09,0-.41,0-.75,0-.75,0-.03,0-.06,0-.09,0-.41,0-.75,0-.75,0-.03,0-.06,0-.09,0-.41,0-.75,0-.75,0-.03,0-.06,0-.09,0-.41,0-.75,0-.75,0-.03,0-.06,0-.08,0-.42,0-.75,0-.75,0-.03,0-.06,0-.09,0-.42,0-.75,0-.75,0-.03,0-.06,0-.09,0-.42,0-.75,0-.75,0-.03,0-.06,0-.09,0-.41,0-.75,0-.75,0-.03,0-.06,0-.09,0-.41,0-.75,0-.75,0-.03,0-.06,0-.09,0-.41,0-.75,0-.75,0-.03,0-.06,0-.09,0-.41,0-.75,0-.75,0-.03,0-.06,0-.09,0-.41,0-.75,0-.75,0-.03,0-.06,0-.09,0-.41,0-.75,0-.75,0-.03,0-.06,0-.08,0-.42,0-.75,0-.75,0-.03,0-.06,0-.08,0-.42,0-.75,0-.75,0-.03,0-.06,0-.09,0-.42,0-.75,0-.75,0-.03,0-.06,0-.09,0-.41,0-.75,0-.75,0-.03,0-.06,0-.09,0-.41,0-.75,0-.75,0-.03,0-.06,0-.09,0-.41,0-.75,0-.75,0-.03,0-.06,0-.09,0-.41,0-.75,0-.75,0-.03,0-.06,0-.09,0-.41,0-.75,0-.75,0-.03,0-.06,0-.09,0-.41,0-.75,0-.75,0-.03,0-.06,0-.09,0-.41,0-.75,0-.75,0-.03,0-.06,0-.08,0-.42,0-.75,0-.75,0-.03,0-.06,0-.09,0-.42,0-.75,0-.75,0-.03,0-.06,0-.09,0-.41,0-.75,0-.75,0-.03,0-.06,0-.09,0-.41,0-.75,0-.75,0-.03,0-.06,0-.09,0-.41,0-.75,0-.75,0-.03,0-.06,0-.09,0-.42,0-.75,0-.75,0-.03,0-.06,0-.09,0-.41,0-.75,0-.75,0-.03,0-.06,0-.09,0-.41,0-.75,0-.75,0-.03,0-.06,0-.09,0-.41,0-.75,0-.75,0-.03,0-.06,0-.08,0-.42,0-.75,0-.75,0-.03,0-.06,0-.09,0-.42,0-.75,0-.75,0-.03,0-.06,0-.09,0-.41,0-.75,0-.75,0-.03,0-.06,0-.09,0-.41,0-.75,0-.75,0-.03,0-.06,0-.09,0-.41,0-.75,0-.75,0-.03,0-.06,0-.09,0-.41,0-.75,0-.75,0-.03,0-.06,0-.09,0-.41,0-.75,0-.75,0-.03,0-.06,0-.09,0-.41,0-.75,0-.75,0-.03,0-.06,0-.09,0-.41,0-.75,0-.75,0-.03,0-.06,0-.08,0-.42,0-.75,0-.75,0-.03,0-.06,0-.09,0-.42,0-.75,0-.75,0-.03,0-.06,0-.09,0-.41,0-.75,0-.75,0-.03,0-.06,0-.09,0-.41,0-.75,0-.75,0-.03,0-.06,0-.09,0-.41,0-.75,0-.75,0-.03,0-.06,0-.09,0-.41,0-.75,0-.75,0-.03,0-.06,0-.09,0-.41,0-.75,0-.75,0-.03,0-.06,0-.09,0-.41,0-.75,0-.75,0-.03,0-.06,0-.09,0-.41,0-.75,0-.75,0-.03,0-.06,0-.08,0-.42,0-.75,0-.75,0-.03,0-.06,0-.09,0-.42,0-.75,0-.75,0-.03,0-.06,0-.09,0-.42,0-.75,0-.75,0-.03,0-.06,0-.09,0-.41,0-.75,0-.75,0-.03,0-.06,0-.09,0-.41,0-.75,0-.75,0-.03,0-.06,0-.09,0-.41,0-.75,0-.75,0-.03,0-.06,0-.09,0-.41,0-.75,0-.75,0-.03,0-.06,0-.09,0-.41,0-.75,0-.75,0-.03,0-.06,0-.09,0-.41,0-.75,0-.75,0-.03,0-.06,0-.08,0-.42,0-.75,0-.75,0-.03,0-.06,0-.08,0-.42,0-.75,0-.75,0-.03,0-.06,0-.09,0-.42,0-.75,0-.75,0-.03,0-.06,0-.09,0-.41,0-.75,0-.75,0-.03,0-.06,0-.09,0-.41,0-.75,0-.75,0-.03,0-.06,0-.09,0-.41,0-.75,0-.75,0-.03,0-.06,0-.09,0-.41,0-.75,0-.75,0-.03,0-.06,0-.09,0-.41,0-.75,0-.75,0-.03,0-.06,0-.09,0-.41,0-.75,0-.75,0-.03,0-.06,0-.09,0-.41,0-.75,0-.75,0-.03,0-.06,0-.08,0-.42,0-.75,0-.75,0-.03,0-.06,0-.09,0-.42,0-.75,0-.75,0-.03,0-.06,0-.09,0-.41,0-.75,0-.75,0-.03,0-.06,0-.09,0-.41,0-.75,0-.75,0-.03,0-.06,0-.09,0-.41,0-.75,0-.75,0-.03,0-.06,0-.09,0-.41,0-.75,0-.75,0-.03,0-.06,0-.09,0-.41,0-.75,0-.75,0-.03,0-.06,0-.09,0-.41,0-.75,0-.75,0-.03,0-.06,0-.09,0-.41,0-.75,0-.75,0-.03,0-.06,0-.08,0-.42,0-.75,0-.75,0-.03,0-.06,0-.09,0-.42,0-.75,0-.75,0-.03,0-.06,0-.09,0-.41,0-.75,0-.75,0-.03,0-.06,0-.09,0-.41,0-.75,0-.75,0-.03,0-.06,0-.09,0-.41,0-.75,0-.75,0-.03,0-.06,0-.09,0-.42,0-.75,0-.75,0-.03,0-.06,0-.09,0-.41,0-.75,0-.75,0-.03,0-.06,0-.09,0-.41,0-.75,0-.75,0-.03,0-.06,0-.09,0-.41,0-.75,0-.75,0-.03,0-.06,0-.08,0-.42,0-.75,0-.75,0-.03,0-.06,0-.09,0-.42,0-.75,0-.75,0-.03,0-.06,0-.09,0-.41,0-.75,0-.75,0-.03,0-.06,0-.09,0-.41,0-.75,0-.75,0-.03,0-.06,0-.09,0-.41,0-.75,0-.75,0-.03,0-.06,0-.09,0-.41,0-.75,0-.75,0-.03,0-.06,0-.09,0-.41,0-.75,0-.75,0-.03,0-.06,0-.09,0-.41,0-.75,0-.75,0-.03,0-.06,0-.09,0-.41,0-.75,0-.75,0-.03,0-.06,0-.08,0-.42,0-.75,0-.75,0-.03,0-.06,0-.09,0-.42,0-.75,0-.75,0-.03,0-.06,0-.09,0-.42,0-.75,0-.75,0-.03,0-.06,0-.09,0-.41,0-.75,0-.75,0-.03,0-.06,0-.09,0-.41,0-.75,0-.75,0-.03,0-.06,0-.09,0-.41,0-.75,0-.75,0-.03,0-.06,0-.09,0-.41,0-.75,0-.75,0-.03,0-.06,0-.09,0-.41,0-.75,0-.75,0-.03,0-.06,0-.09,0-.41,0-.75,0-.75,0-.03,0-.06,0-.08,0-.42,0-.75,0-.75,0-.03,0-.06,0-.09,0-.42,0-.75,0-.75,0-.03,0-.06,0-.09,0-.42,0-.75,0-.75,0-.03,0-.06,0-.09,0-.41,0-.75,0-.75,0-.03,0-.06,0-.09,0-.41,0-.75,0-.75,0-.03,0-.06,0-.09,0-.41,0-.75,0-.75,0-.03,0-.06,0-.09,0-.41,0-.75,0-.75,0-.03,0-.06,0-.09,0-.41,0-.75,0-.75,0-.03,0-.06,0-.09,0-.41,0-.75,0-.75,0-.03,0-.06,0-.08,0-.42,0-.75,0-.75,0-.03,0-.06,0-.08,0-.42,0-.75,0-.75,0-.03,0-.06,0-.09,0-.42,0-.75,0-.75,0-.03,0-.06,0-.09,0-.41,0-.75,0-.75,0-.03,0-.06,0-.09,0-.41,0-.75,0-.75,0-.03,0-.06,0-.09,0-.41,0-.75,0-.75,0-.03,0-.06,0-.09,0-.41,0-.75,0-.75,0-.03,0-.06,0-.09,0-.41,0-.75,0-.75,0-.03,0-.06,0-.09,0-.41,0-.75,0-.75,0-.03,0-.06,0-.09,0-.41,0-.75,0-.75,0-.03,0-.06,0-.08,0-.42,0-.75,0-.75,0-.03,0-.06,0-.09,0-.42,0-.75,0-.75,0-.03,0-.06,0-.09,0-.41,0-.75,0-.75,0-.03,0-.06,0-.09,0-.41,0-.75,0-.75,0-.03,0-.06,0-.09,0-.41,0-.75,0-.75,0-.03,0-.06,0-.09,0-.41,0-.75,0-.75,0-.03,0-.06,0-.09,0-.41,0-.75,0-.75,0-.03,0-.06,0-.09,0-.41,0-.75,0-.75,0-.03,0-.06,0-.09,0-.41,0-.75,0-.75,0-.03,0-.06,0-.08,0-.42,0-.75,0-.75,0-.03,0-.06,0-.09,0-.42,0-.75,0-.75,0-.03,0-.06,0-.09,0-.41,0-.75,0-.75,0-.03,0-.06,0-.09,0-.41,0-.75,0-.75,0-.03,0-.06,0-.09,0-.41,0-.75,0-.75,0-.03,0-.06,0-.09,0-.41,0-.75,0-.75,0-26.03,0-50.33,11.92-66.68,32.69-8.08,10.32-13.58,22.02-16.46,34.32-.01,0-.03,0-.04,0-.11,0-.22.02-.33.02-.17,0-.33-.02-.5-.02-.11,0-.22.02-.33.02-.17,0-.33-.02-.5-.02-.11,0-.22.02-.34.02-.17,0-.33-.02-.5-.02-.11,0-.22.02-.34.02-.17,0-.33-.02-.5-.02-.11,0-.22.02-.34.02-.17,0-.33-.02-.5-.02-.11,0-.22.02-.33.02-.17,0-.33-.02-.5-.02-.11,0-.22.02-.33.02-.17,0-.33-.02-.5-.02-.11,0-.22.02-.34.02-.17,0-.33-.02-.5-.02-.11,0-.22.02-.34.02-.17,0-.33-.02-.5-.02-.11,0-.22.02-.33.02-.17,0-.33-.02-.5-.02-.11,0-.22.02-.33.02-.17,0-.33-.02-.5-.02-.11,0-.22.02-.34.02-.17,0-.33-.02-.5-.02-.11,0-.22.02-.34.02-.17,0-.33-.02-.5-.02-.11,0-.22.02-.34.02-.17,0-.33-.02-.5-.02-.11,0-.22.02-.33.02-.17,0-.33-.02-.5-.02-.11,0-.22.02-.33.02-.17,0-.33-.02-.5-.02-.11,0-.22.02-.33.02-.17,0-.33-.02-.5-.02-.11,0-.22.02-.34.02-.17,0-.33-.02-.5-.02-.11,0-.22.02-.33.02-.17,0-.33-.02-.5-.02-.11,0-.22.02-.33.02-.17,0-.33-.02-.5-.02-.11,0-.22.02-.34.02-.17,0-.33-.02-.5-.02-.11,0-.22.02-.34.02-.17,0-.33-.02-.5-.02-.11,0-.22.02-.34.02-.17,0-.33-.02-.5-.02-.11,0-.22.02-.34.02-.17,0-.33-.02-.5-.02-.11,0-.22.02-.33.02-.17,0-.33-.02-.5-.02-.11,0-.22.02-.33.02-.17,0-.33-.02-.5-.02-.11,0-.22.02-.34.02-.17,0-.33-.02-.5-.02-.11,0-.22.02-.33.02-.17,0-.33-.02-.5-.02-.11,0-.22.02-.33.02-.17,0-.33-.02-.5-.02-.11,0-.22.02-.34.02-.17,0-.33-.02-.5-.02-.11,0-.22.02-.34.02-.17,0-.33-.02-.5-.02-.11,0-.22.02-.34.02-.17,0-.33-.02-.5-.02-.11,0-.22.02-.34.02-.17,0-.33-.02-.5-.02-.11,0-.22.02-.33.02-.17,0-.33-.02-.5-.02-.11,0-.22.02-.33.02-.17,0-.33-.02-.5-.02-.11,0-.22.02-.34.02-.17,0-.33-.02-.5-.02-.11,0-.22.02-.33.02-.17,0-.33-.02-.5-.02-.11,0-.22.02-.33.02-.17,0-.33-.02-.5-.02-.11,0-.22.02-.34.02-.17,0-.33-.02-.5-.02-.11,0-.22.02-.34.02-.17,0-.33-.02-.5-.02-.11,0-.22.02-.34.02-.17,0-.33-.02-.5-.02-.11,0-.22.02-.34.02-.17,0-.33-.02-.5-.02-.11,0-.22.02-.33.02-.17,0-.33-.02-.5-.02-.11,0-.22.02-.33.02-.17,0-.33-.02-.5-.02-.11,0-.22.02-.34.02-.17,0-.33-.02-.5-.02-.11,0-.22.02-.33.02-.17,0-.33-.02-.5-.02-.11,0-.22.02-.33.02-.17,0-.33-.02-.5-.02-.11,0-.22.02-.34.02-.17,0-.33-.02-.5-.02-.11,0-.22.02-.34.02-.17,0-.33-.02-.5-.02-.11,0-.22.02-.34.02-.17,0-.33-.02-.5-.02-.11,0-.22.02-.34.02-.17,0-.33-.02-.5-.02-.11,0-.22.02-.33.02-.17,0-.33-.02-.5-.02-.11,0-.22.02-.33.02-.17,0-.33-.02-.5-.02-.11,0-.22.02-.34.02-.17,0-.33-.02-.5-.02-.11,0-.22.02-.34.02-.17,0-.33-.02-.5-.02-.11,0-.22.02-.33.02-.17,0-.33-.02-.5-.02-.11,0-.22.02-.33.02-.17,0-.33-.02-.5-.02-.11,0-.22.02-.34.02-.17,0-.33-.02-.5-.02-.11,0-.22.02-.34.02-.17,0-.33-.02-.5-.02-.11,0-.22.02-.34.02-.17,0-.33-.02-.5-.02-.11,0-.22.02-.33.02-.17,0-.33-.02-.5-.02-.11,0-.22.02-.33.02-.17,0-.33-.02-.5-.02-.11,0-.22.02-.34.02-.17,0-.33-.02-.5-.02-.11,0-.22.02-.34.02-.17,0-.33-.02-.5-.02-.11,0-.22.02-.33.02-.17,0-.33-.02-.5-.02-.11,0-.22.02-.33.02-.17,0-.33-.02-.5-.02-.11,0-.22.02-.34.02-.17,0-.33-.02-.5-.02-.11,0-.22.02-.34.02-.17,0-.33-.02-.5-.02-.11,0-.22.02-.34.02-.17,0-.33-.02-.5-.02-.11,0-.22.02-.33.02-.17,0-.33-.02-.5-.02-.11,0-.22.02-.33.02-.17,0-.33-.02-.5-.02-.11,0-.22.02-.33.02-.17,0-.33-.02-.5-.02-.11,0-.22.02-.34.02-.17,0-.33-.02-.5-.02-.11,0-.22.02-.33.02-.17,0-.33-.02-.5-.02-.11,0-.22.02-.33.02-.17,0-.33-.02-.5-.02-.11,0-.22.02-.34.02-.17,0-.33-.02-.5-.02-.11,0-.22.02-.34.02-.17,0-.33-.02-.5-.02-.11,0-.22.02-.34.02-.17,0-.33-.02-.5-.02-.11,0-.22.02-.34.02-.17,0-.33-.02-.5-.02-.11,0-.22.02-.33.02-.17,0-.33-.02-.5-.02-.11,0-.22.02-.33.02-.17,0-.33-.02-.5-.02-.11,0-.22.02-.34.02-.17,0-.33-.02-.5-.02-.11,0-.22.02-.33.02-.17,0-.33-.02-.5-.02-.11,0-.22.02-.33.02-.17,0-.33-.02-.5-.02-.11,0-.22.02-.34.02-.17,0-.33-.02-.5-.02-.11,0-.22.02-.34.02-.17,0-.33-.02-.5-.02-.11,0-.22.02-.34.02-.17,0-.33-.02-.5-.02-.11,0-.22.02-.34.02-.17,0-.33-.02-.5-.02-.11,0-.22.02-.33.02-.17,0-.33-.02-.5-.02-.11,0-.22.02-.33.02-.17,0-.33-.02-.5-.02-.11,0-.22.02-.34.02-.17,0-.33-.02-.5-.02-.11,0-.22.02-.33.02-.17,0-.33-.02-.5-.02-.11,0-.22.02-.33.02-.17,0-.33-.02-.5-.02-.11,0-.22.02-.34.02-.17,0-.33-.02-.5-.02-.11,0-.22.02-.34.02-.17,0-.33-.02-.5-.02-10.97,0-21.67,2.07-31.63,6.05-9.91,3.92-19.15,9.8-27.1,17.3-19.37,18.25-28.83,44-26.03,70.76,2.86,27.15,18.53,51.84,41.82,66.01l3.34,2.03c-.08,0-.17-.02-.25-.02-.16,0-.31.02-.46.02-.12,0-.25-.02-.37-.02-.16,0-.31.02-.46.02-.12,0-.25-.02-.37-.02-.16,0-.31.02-.46.02-.12,0-.25-.02-.37-.02-.16,0-.31.02-.46.02-.12,0-.25-.02-.37-.02-.16,0-.31.02-.46.02-.12,0-.25-.02-.37-.02-.16,0-.31.02-.46.02-.12,0-.25-.02-.37-.02-.16,0-.31.02-.46.02-.12,0-.25-.02-.37-.02-.16,0-.31.02-.46.02-.12,0-.25-.02-.37-.02-.16,0-.31.02-.46.02-.12,0-.25-.02-.37-.02-.16,0-.31.02-.46.02-.12,0-.25-.02-.37-.02-.16,0-.31.02-.46.02-.12,0-.25-.02-.37-.02-.16,0-.31.02-.46.02-.12,0-.25-.02-.37-.02-.16,0-.31.02-.46.02-.12,0-.25-.02-.37-.02-.16,0-.31.02-.46.02-.12,0-.25-.02-.37-.02-.16,0-.31.02-.46.02-.12,0-.25-.02-.37-.02-.16,0-.31.02-.46.02-.12,0-.25-.02-.37-.02-.16,0-.31.02-.46.02-.12,0-.25-.02-.37-.02-.16,0-.31.02-.46.02-.12,0-.25-.02-.37-.02-.16,0-.31.02-.46.02-.12,0-.25-.02-.37-.02-.16,0-.31.02-.46.02-.12,0-.25-.02-.37-.02-.16,0-.31.02-.46.02-.12,0-.25-.02-.37-.02-.16,0-.31.02-.46.02-.12,0-.25-.02-.37-.02-.16,0-.31.02-.46.02-.12,0-.25-.02-.37-.02-.16,0-.31.02-.46.02-.12,0-.25-.02-.37-.02-.16,0-.31.02-.46.02-.12,0-.25-.02-.37-.02-.16,0-.31.02-.46.02-.12,0-.25-.02-.37-.02-.16,0-.31.02-.46.02-.12,0-.25-.02-.37-.02-.16,0-.31.02-.46.02-.12,0-.25-.02-.37-.02-.16,0-.31.02-.46.02-.12,0-.25-.02-.37-.02-.16,0-.31.02-.46.02-.12,0-.25-.02-.37-.02-.16,0-.31.02-.46.02-.12,0-.25-.02-.37-.02-.16,0-.31.02-.46.02-.12,0-.25-.02-.37-.02-.16,0-.31.02-.46.02-.12,0-.25-.02-.37-.02-46.69,0-84.31,36.56-85.71,83.25-.67,22.95,7.84,44.73,23.96,61.36,16.46,16.96,39.47,26.7,63.09,26.7.17,0,.34-.02.52-.02.11,0,.21.02.32.02.17,0,.34-.02.52-.02.11,0,.21.02.32.02.17,0,.34-.02.52-.02.11,0,.21.02.32.02.17,0,.34-.02.52-.02.11,0,.21.02.32.02.17,0,.34-.02.52-.02.11,0,.21.02.32.02.17,0,.34-.02.52-.02.11,0,.21.02.32.02.17,0,.34-.02.52-.02.11,0,.21.02.32.02.17,0,.34-.02.52-.02.11,0,.21.02.32.02.17,0,.34-.02.52-.02.11,0,.21.02.32.02.17,0,.34-.02.52-.02.11,0,.21.02.32.02.17,0,.34-.02.52-.02.11,0,.21.02.32.02.17,0,.34-.02.52-.02.11,0,.21.02.32.02.17,0,.34-.02.52-.02.11,0,.21.02.32.02.17,0,.34-.02.52-.02.11,0,.21.02.32.02.17,0,.34-.02.52-.02.11,0,.21.02.32.02.17,0,.34-.02.52-.02.11,0,.21.02.32.02.17,0,.34-.02.52-.02.11,0,.21.02.32.02.17,0,.34-.02.52-.02.11,0,.21.02.32.02.17,0,.34-.02.52-.02.11,0,.21.02.32.02.17,0,.34-.02.52-.02.11,0,.21.02.32.02.17,0,.34-.02.52-.02.11,0,.21.02.32.02.17,0,.34-.02.52-.02.11,0,.21.02.32.02.17,0,.34-.02.52-.02.11,0,.21.02.32.02.17,0,.34-.02.52-.02.11,0,.21.02.32.02.17,0,.34-.02.52-.02.11,0,.21.02.32.02.17,0,.34-.02.52-.02.11,0,.21.02.32.02.17,0,.34-.02.52-.02.11,0,.21.02.32.02.17,0,.34-.02.52-.02.11,0,.21.02.32.02.17,0,.34-.02.52-.02.11,0,.21.02.32.02.17,0,.34-.02.52-.02.11,0,.21.02.32.02.17,0,.34-.02.52-.02.11,0,.21.02.32.02.17,0,.34-.02.52-.02.11,0,.21.02.32.02.09,0,.19,0,.28,0l-5.74,3.48c-22.23,13.49-37.01,36-40.48,61.81-3.47,25.75,4.7,51.39,22.56,70.32,16.07,17.08,37.96,26.48,61.58,26.48.17,0,.33-.02.5-.02.11,0,.22.02.33.02.17,0,.33-.02.5-.02.11,0,.22.02.33.02.17,0,.33-.02.5-.02.11,0,.22.02.33.02.17,0,.33-.02.5-.02.11,0,.22.02.33.02.17,0,.33-.02.5-.02.11,0,.22.02.33.02.17,0,.33-.02.5-.02.11,0,.22.02.33.02.17,0,.33-.02.5-.02.11,0,.22.02.33.02.17,0,.33-.02.5-.02.11,0,.22.02.33.02.17,0,.33-.02.5-.02.11,0,.22.02.33.02.17,0,.33-.02.5-.02.11,0,.22.02.33.02.17,0,.33-.02.5-.02.11,0,.22.02.33.02.17,0,.33-.02.5-.02.11,0,.22.02.33.02.17,0,.33-.02.5-.02.11,0,.22.02.33.02.17,0,.33-.02.5-.02.11,0,.22.02.33.02.17,0,.33-.02.5-.02.11,0,.22.02.33.02.17,0,.33-.02.5-.02.11,0,.22.02.33.02.17,0,.33-.02.5-.02.11,0,.22.02.33.02.17,0,.33-.02.5-.02.11,0,.22.02.33.02.17,0,.33-.02.5-.02.11,0,.22.02.33.02.17,0,.33-.02.5-.02.11,0,.22.02.33.02.17,0,.33-.02.5-.02.11,0,.22.02.33.02.17,0,.33-.02.5-.02.11,0,.22.02.33.02.17,0,.33-.02.5-.02.11,0,.22.02.33.02.17,0,.33-.02.5-.02.11,0,.22.02.33.02.17,0,.33-.02.5-.02.11,0,.22.02.33.02.17,0,.33-.02.5-.02.11,0,.22.02.33.02.17,0,.33-.02.5-.02.11,0,.22.02.33.02.17,0,.33-.02.5-.02.11,0,.22.02.33.02.17,0,.33-.02.5-.02.11,0,.22.02.33.02.17,0,.33-.02.5-.02.11,0,.22.02.33.02.17,0,.33-.02.5-.02.11,0,.22.02.33.02.17,0,.33-.02.5-.02.11,0,.22.02.33.02.17,0,.33-.02.5-.02.11,0,.22.02.33.02.17,0,.33-.02.5-.02.11,0,.22.02.33.02.17,0,.33-.02.5-.02.11,0,.22.02.33.02.17,0,.33-.02.5-.02.11,0,.22.02.33.02.17,0,.33-.02.5-.02.11,0,.22.02.33.02.17,0,.33-.02.5-.02.11,0,.22.02.33.02.17,0,.33-.02.5-.02.11,0,.22.02.33.02.17,0,.33-.02.5-.02.11,0,.22.02.33.02.17,0,.33-.02.5-.02.11,0,.22.02.33.02.17,0,.33-.02.5-.02.11,0,.22.02.33.02.17,0,.33-.02.5-.02.11,0,.22.02.33.02.17,0,.33-.02.5-.02.11,0,.22.02.33.02.17,0,.33-.02.5-.02.11,0,.22.02.33.02.17,0,.33-.02.5-.02.11,0,.22.02.33.02.17,0,.33-.02.5-.02.11,0,.22.02.33.02.17,0,.33-.02.5-.02.11,0,.22.02.33.02.17,0,.33-.02.5-.02.11,0,.22.02.33.02.17,0,.33-.02.5-.02.11,0,.22.02.33.02.17,0,.33-.02.5-.02.11,0,.22.02.33.02.17,0,.33-.02.5-.02.11,0,.22.02.33.02.17,0,.33-.02.5-.02.11,0,.22.02.33.02.17,0,.33-.02.5-.02.11,0,.22.02.33.02.17,0,.33-.02.5-.02.11,0,.22.02.33.02.17,0,.33-.02.5-.02.11,0,.22.02.33.02.17,0,.33-.02.5-.02.11,0,.22.02.33.02.17,0,.33-.02.5-.02.11,0,.22.02.33.02.17,0,.33-.02.5-.02.11,0,.22.02.33.02.17,0,.33-.02.5-.02.11,0,.22.02.33.02.17,0,.33-.02.5-.02.11,0,.22.02.33.02.17,0,.33-.02.5-.02.11,0,.22.02.33.02.17,0,.33-.02.5-.02.11,0,.22.02.33.02.17,0,.33-.02.5-.02.11,0,.22.02.33.02.17,0,.33-.02.5-.02.11,0,.22.02.33.02.17,0,.33-.02.5-.02.11,0,.22.02.33.02.17,0,.33-.02.5-.02.11,0,.22.02.33.02.17,0,.33-.02.5-.02.11,0,.22.02.33.02.17,0,.33-.02.5-.02.11,0,.22.02.33.02.17,0,.33-.02.5-.02.11,0,.22.02.33.02.17,0,.33-.02.5-.02.11,0,.22.02.33.02.17,0,.33-.02.5-.02.11,0,.22.02.33.02.17,0,.33-.02.5-.02.11,0,.22.02.33.02.17,0,.33-.02.5-.02.11,0,.22.02.33.02.17,0,.33-.02.5-.02.11,0,.22.02.33.02.17,0,.33-.02.5-.02.11,0,.22.02.33.02.17,0,.33-.02.5-.02.11,0,.22.02.33.02.17,0,.33-.02.5-.02.11,0,.22.02.33.02.17,0,.33-.02.5-.02.11,0,.22.02.33.02.17,0,.33-.02.5-.02.11,0,.22.02.33.02.17,0,.33-.02.5-.02.11,0,.22.02.33.02.17,0,.33-.02.5-.02.11,0,.22.02.33.02.17,0,.33-.02.5-.02.11,0,.22.02.33.02.17,0,.33-.02.5-.02.11,0,.22.02.33.02.17,0,.33-.02.5-.02.11,0,.22.02.33.02.17,0,.33-.02.5-.02.11,0,.22.02.33.02.17,0,.33-.02.5-.02.11,0,.22.02.33.02.17,0,.33-.02.5-.02.11,0,.22.02.33.02.17,0,.33-.02.5-.02.11,0,.22.02.33.02.17,0,.33-.02.5-.02.11,0,.22.02.33.02.17,0,.33-.02.5-.02.11,0,.22.02.33.02.17,0,.33-.02.5-.02.11,0,.22.02.33.02.17,0,.33-.02.5-.02.11,0,.22.02.33.02.17,0,.33-.02.5-.02.11,0,.22.02.33.02.17,0,.33-.02.5-.02.08,0,.17.01.25.01,2.6,12.18,7.85,23.81,15.63,34.04,15.79,20.71,39.69,33.03,65.73,33.81h136.71c26.03,0,50.39-11.92,66.68-32.69,8.08-10.32,13.58-22.03,16.46-34.32.01,0,.02,0,.04,0,.11,0,.22-.02.34-.02.17,0,.33.02.5.02.11,0,.22-.02.34-.02.17,0,.33.02.5.02.11,0,.22-.02.34-.02.17,0,.33.02.5.02.11,0,.22-.02.34-.02.17,0,.33.02.5.02.11,0,.22-.02.34-.02.17,0,.33.02.5.02.11,0,.22-.02.34-.02.17,0,.33.02.5.02.11,0,.22-.02.34-.02.17,0,.33.02.5.02.11,0,.22-.02.34-.02.17,0,.33.02.5.02.11,0,.22-.02.34-.02.17,0,.33.02.5.02.11,0,.22-.02.34-.02.17,0,.33.02.5.02.11,0,.22-.02.34-.02.17,0,.33.02.5.02.11,0,.22-.02.34-.02.17,0,.33.02.5.02.11,0,.22-.02.34-.02.17,0,.33.02.5.02.11,0,.22-.02.34-.02.17,0,.33.02.5.02.11,0,.22-.02.34-.02.17,0,.33.02.5.02.11,0,.22-.02.34-.02.17,0,.33.02.5.02.11,0,.22-.02.34-.02.17,0,.33.02.5.02.11,0,.22-.02.34-.02.17,0,.33.02.5.02.11,0,.22-.02.34-.02.17,0,.33.02.5.02.11,0,.22-.02.34-.02.17,0,.33.02.5.02.11,0,.22-.02.34-.02.17,0,.33.02.5.02.11,0,.22-.02.34-.02.17,0,.33.02.5.02.11,0,.22-.02.34-.02.17,0,.33.02.5.02.11,0,.22-.02.34-.02.17,0,.33.02.5.02.11,0,.22-.02.34-.02.17,0,.33.02.5.02.11,0,.22-.02.34-.02.17,0,.33.02.5.02.11,0,.22-.02.34-.02.17,0,.33.02.5.02.11,0,.22-.02.34-.02.17,0,.33.02.5.02.11,0,.22-.02.34-.02.17,0,.33.02.5.02.11,0,.22-.02.34-.02.17,0,.33.02.5.02.11,0,.22-.02.34-.02.17,0,.33.02.5.02.11,0,.22-.02.34-.02.17,0,.33.02.5.02.11,0,.22-.02.34-.02.17,0,.33.02.5.02.11,0,.22-.02.34-.02.17,0,.33.02.5.02.11,0,.22-.02.34-.02.17,0,.33.02.5.02.11,0,.22-.02.34-.02.17,0,.33.02.5.02.11,0,.22-.02.34-.02.17,0,.33.02.5.02.11,0,.22-.02.34-.02.17,0,.33.02.5.02.11,0,.22-.02.34-.02.17,0,.33.02.5.02.11,0,.22-.02.34-.02.17,0,.33.02.5.02.11,0,.22-.02.34-.02.17,0,.33.02.5.02.11,0,.22-.02.34-.02.17,0,.33.02.5.02.11,0,.22-.02.34-.02.17,0,.33.02.5.02.11,0,.22-.02.34-.02.17,0,.33.02.5.02.11,0,.22-.02.34-.02.17,0,.33.02.5.02.11,0,.22-.02.34-.02.17,0,.33.02.5.02.11,0,.22-.02.34-.02.17,0,.33.02.5.02.11,0,.22-.02.34-.02.17,0,.33.02.5.02.11,0,.22-.02.34-.02.17,0,.33.02.5.02.11,0,.22-.02.34-.02.17,0,.33.02.5.02.11,0,.22-.02.34-.02.17,0,.33.02.5.02.11,0,.22-.02.34-.02.17,0,.33.02.5.02.11,0,.22-.02.34-.02.17,0,.33.02.5.02.11,0,.22-.02.34-.02.17,0,.33.02.5.02.11,0,.22-.02.34-.02.17,0,.33.02.5.02.11,0,.22-.02.34-.02.17,0,.33.02.5.02.11,0,.22-.02.34-.02.17,0,.33.02.5.02.11,0,.22-.02.34-.02.17,0,.33.02.5.02.11,0,.22-.02.34-.02.17,0,.33.02.5.02.11,0,.22-.02.34-.02.17,0,.33.02.5.02.11,0,.22-.02.34-.02.17,0,.33.02.5.02.11,0,.22-.02.34-.02.17,0,.33.02.5.02.11,0,.22-.02.34-.02.17,0,.33.02.5.02.11,0,.22-.02.34-.02.17,0,.33.02.5.02.11,0,.22-.02.34-.02.17,0,.33.02.5.02.11,0,.22-.02.34-.02.17,0,.33.02.5.02.11,0,.22-.02.34-.02.17,0,.33.02.5.02.11,0,.22-.02.34-.02.17,0,.33.02.5.02.11,0,.22-.02.34-.02.17,0,.33.02.5.02.11,0,.22-.02.34-.02.17,0,.33.02.5.02.11,0,.22-.02.34-.02.17,0,.33.02.5.02.11,0,.22-.02.34-.02.17,0,.33.02.5.02.11,0,.22-.02.34-.02.17,0,.33.02.5.02.11,0,.22-.02.34-.02.17,0,.33.02.5.02.11,0,.22-.02.34-.02.17,0,.33.02.5.02.11,0,.22-.02.34-.02.17,0,.33.02.5.02.11,0,.22-.02.34-.02.17,0,.33.02.5.02.11,0,.22-.02.34-.02.17,0,.33.02.5.02.11,0,.22-.02.34-.02.17,0,.33.02.5.02.11,0,.22-.02.34-.02.17,0,.33.02.5.02.11,0,.22-.02.34-.02.17,0,.33.02.5.02.11,0,.22-.02.34-.02.17,0,.33.02.5.02.11,0,.22-.02.34-.02.17,0,.33.02.5.02.11,0,.22-.02.34-.02.17,0,.33.02.5.02.11,0,.22-.02.34-.02.17,0,.33.02.5.02.11,0,.22-.02.34-.02.17,0,.33.02.5.02.11,0,.22-.02.34-.02.17,0,.33.02.5.02.11,0,.22-.02.34-.02.17,0,.33.02.5.02.11,0,.22-.02.34-.02.17,0,.33.02.5.02.11,0,.22-.02.34-.02.17,0,.33.02.5.02.11,0,.22-.02.34-.02.17,0,.33.02.5.02.11,0,.22-.02.34-.02.17,0,.33.02.5.02.11,0,.22-.02.34-.02.17,0,.33.02.5.02.11,0,.22-.02.34-.02.17,0,.33.02.5.02.11,0,.22-.02.34-.02.17,0,.33.02.5.02,21.95,0,42.83-8.29,58.78-23.35,19.31-18.19,28.78-44,25.98-70.76-2.86-27.15-18.48-51.84-41.82-66.01l-3.35-2.03c.1,0,.21.02.31.02.16,0,.3-.02.46-.02Z"/>
        <g>
          <path class="cls-2" d="M226.57,466.5c-28.9-7.06-56.79,14.36-57.66,43.85-.92,30.97,29.3,53.65,59.4,46.29l108.91-26.62c19.09-4.67,19.09-31.81,0-36.47l-110.64-27.05Z"/>
          <path class="cls-2" d="M322.69,325.45c-15.44-25.43-50.31-30-71.78-9.77-22.55,21.25-17.21,58.65,9.27,74.73l95.83,58.18c16.8,10.2,35.99-8.99,25.79-25.79l-59.11-97.36Z"/>
          <path class="cls-2" d="M490.39,293.67c7.06-28.9-14.36-56.79-43.85-57.66-30.97-.92-53.65,29.3-46.29,59.4l26.62,108.91c4.67,19.09,31.81,19.09,36.47,0l27.05-110.64Z"/>
          <path class="cls-2" d="M631.44,389.79c25.43-15.44,30-50.31,9.77-71.78-21.25-22.55-58.65-17.21-74.73,9.27l-58.18,95.83c-10.2,16.8,8.99,35.99,25.79,25.79l97.36-59.11Z"/>
          <path class="cls-2" d="M663.22,557.49c28.9,7.06,56.79-14.36,57.66-43.85.92-30.97-29.3-53.65-59.4-46.29l-108.91,26.62c-19.09,4.67-19.09,31.81,0,36.47l110.64,27.05Z"/>
          <path class="cls-2" d="M567.1,698.54c15.44,25.43,50.31,30,71.78,9.77,22.55-21.25,17.21-58.65-9.27-74.73l-95.83-58.18c-16.8-10.2-35.99,8.99-25.79,25.79l59.11,97.36Z"/>
          <path class="cls-2" d="M399.4,730.32c-7.06,28.9,14.36,56.79,43.85,57.66,30.97.92,53.65-29.3,46.29-59.4l-26.62-108.91c-4.67-19.09-31.81-19.09-36.47,0l-27.05,110.64Z"/>
          <path class="cls-2" d="M258.35,634.2c-25.43,15.44-30,50.31-9.77,71.78,21.25,22.55,58.65,17.21,74.73-9.27l58.18-95.83c10.2-16.8-8.99-35.99-25.79-25.79l-97.36,59.11Z"/>
        </g>
      </g>
    </g>
  </g>
</svg>